<?xml version="1.0" encoding="utf-8"?>
<!-- Generator: Adobe Illustrator 15.0.0, SVG Export Plug-In . SVG Version: 6.00 Build 0)  -->
<!DOCTYPE svg PUBLIC "-//W3C//DTD SVG 1.1//EN" "http://www.w3.org/Graphics/SVG/1.1/DTD/svg11.dtd">
<svg version="1.1" id="Layer_1" xmlns="http://www.w3.org/2000/svg" xmlns:xlink="http://www.w3.org/1999/xlink" x="0px" y="0px"
	 width="1614.115px" height="820.788px" viewBox="0 0 1614.115 820.788" enable-background="new 0 0 1614.115 820.788"
	 xml:space="preserve">
<g>
	<path opacity="0.8" fill="#B7B3B4" d="M-617.076,482.827c1.744,0.207,3.338-0.484,4.498-1.633l43.945,38.878
		c-0.598,0.77-1.072,1.648-1.203,2.686c-0.355,3.031,1.805,5.783,4.84,6.145c3.037,0.363,5.787-1.797,6.15-4.834
		c0.023-0.207-0.051-0.408-0.051-0.615l263.438-32.383c0.551,2.146,2.334,3.85,4.674,4.125c2.268,0.271,4.377-0.875,5.451-2.736
		l132.842,61.191c-0.135,0.385-0.332,0.734-0.381,1.156c-0.369,3.033,1.807,5.785,4.832,6.146c3.039,0.363,5.789-1.805,6.154-4.83
		c0.055-0.496-0.051-0.965-0.115-1.428l190.506-48.625c0.707,1.873,2.346,3.328,4.471,3.582c2.549,0.301,4.803-1.223,5.707-3.5
		l208.539,55.877c-0.006,0.061-0.045,0.105-0.049,0.166c-0.365,3.025,1.799,5.785,4.838,6.146c3.023,0.363,5.789-1.807,6.146-4.838
		c0.117-1.021-0.121-1.963-0.512-2.836l137.385-76.179c0.873,1.271,2.219,2.203,3.867,2.4c2.502,0.299,4.734-1.173,5.666-3.384
		l186.32,55.796c-0.02,0.131-0.102,0.229-0.113,0.355c-0.365,3.033,1.803,5.783,4.84,6.146c2.701,0.326,5.082-1.406,5.844-3.924
		l241.072,41.508c-0.127,2.865,1.912,5.408,4.814,5.752c1.404,0.17,2.73-0.258,3.805-1.006l184.767,200.996
		c-0.661,0.791-1.187,1.715-1.322,2.82c-0.363,3.031,1.806,5.789,4.838,6.152c3.039,0.363,5.789-1.805,6.146-4.844
		c0.044-0.328-0.057-0.633-0.076-0.945l273.658-52.555c0.664,1.959,2.363,3.49,4.557,3.748c3.032,0.363,5.79-1.805,6.147-4.83
		c0.112-0.941-0.083-1.82-0.408-2.639l219.051-118.219c0.874,1.236,2.208,2.129,3.822,2.314c3.032,0.363,5.783-1.805,6.147-4.836
		c0.177-1.527-0.275-2.977-1.164-4.092l178.985-182.563c0.763,0.582,1.611,1.035,2.635,1.158c3.032,0.365,5.783-1.805,6.146-4.836
		c0.06-0.498-0.045-0.965-0.117-1.439l246.142-68.364c0.752,1.774,2.326,3.145,4.37,3.387c3.031,0.362,5.791-1.801,6.153-4.838
		c0.356-3.033-1.805-5.785-4.837-6.148c-1.492-0.174-2.903,0.27-4.01,1.109l-102.381-111.379c0.737-0.818,1.317-1.803,1.458-2.982
		c0.361-3.038-1.806-5.789-4.839-6.152c-2.043-0.241-3.896,0.72-5.047,2.27l-185.441-106.453c0.205-0.479,0.428-0.959,0.497-1.504
		c0.364-3.034-1.807-5.791-4.838-6.155c-3.031-0.356-5.783,1.806-6.152,4.847c-0.104,0.912,0.078,1.773,0.388,2.579l-193.237,99.267
		c-0.867-1.298-2.223-2.254-3.898-2.455c-2.761-0.331-5.206,1.479-5.904,4.091l-246.441-33.659c0.021-2.787-1.966-5.221-4.786-5.561
		c-1.963-0.231-3.735,0.66-4.891,2.092L1033.666,55.859c0.233-0.512,0.462-1.024,0.532-1.609c0.356-3.034-1.806-5.785-4.845-6.148
		c-3.031-0.365-5.782,1.805-6.141,4.831c-0.097,0.845,0.023,1.636,0.272,2.384L926.322,95.9c-0.816-1.579-2.281-2.793-4.188-3.018
		c-2.373-0.279-4.533,1.011-5.545,3.025L714.662,21.209c0.055-0.227,0.186-0.412,0.215-0.643c0.361-3.033-1.799-5.782-4.838-6.146
		c-3.031-0.362-5.783,1.805-6.148,4.839c-0.127,1.061,0.143,2.035,0.563,2.938L493.5,154.045c-0.875-1.083-2.152-1.847-3.635-2.021
		c-2.201-0.266-4.242,0.831-5.34,2.611L276.141,57.858c0.115-0.35,0.295-0.661,0.336-1.026c0.363-3.04-1.807-5.791-4.838-6.155
		c-3.033-0.362-5.783,1.808-6.146,4.837c-0.145,1.248,0.207,2.406,0.801,3.418L124.559,162.992
		c-0.869-0.962-2.021-1.665-3.414-1.831c-3.025-0.363-5.781,1.808-6.145,4.838c-0.107,0.888,0.051,1.716,0.338,2.505
		L-96.361,274.518c-0.869-1.306-2.227-2.274-3.908-2.475c-3.033-0.363-5.783,1.805-6.152,4.839
		c-0.189,1.601,0.363,3.101,1.336,4.232l-48.078,51.212l-226.729,25.149c-0.527-2.185-2.324-3.925-4.684-4.206
		c-3.037-0.363-5.787,1.804-6.15,4.838c-0.107,0.891,0.059,1.741,0.354,2.537l-221.52,113.61c-0.881-1.277-2.219-2.215-3.873-2.412
		c-3.033-0.363-5.785,1.805-6.146,4.838C-622.277,479.712-620.109,482.464-617.076,482.827z M2010.747,353.834l-246.142,68.369
		c-0.289-0.68-0.696-1.27-1.223-1.781l140.148-182.037c0.646,0.386,1.37,0.661,2.167,0.759c1.485,0.182,2.904-0.263,4.01-1.108
		l102.389,111.382c-0.744,0.822-1.319,1.797-1.459,2.985C2010.572,352.898,2010.683,353.364,2010.747,353.834z M116.422,170.316
		c0.559,0.619,1.26,1.062,2.049,1.379L84.375,303.361c-1.848,0.504-3.268,1.982-3.793,3.89L-51.09,285.293L116.422,170.316z
		 M708.729,25.404c0.6,0.07,1.176-0.025,1.736-0.135l78.125,234.227c-1.598,0.772-2.826,2.224-3.105,4.104l-134.273-7.829
		c-0.074-2.197-1.398-4.07-3.398-4.882L708.59,25.359C708.637,25.368,708.682,25.396,708.729,25.404z M920.824,103.867
		c1.008,0.12,1.939-0.114,2.799-0.482l111.925,195.035c-0.958,0.709-1.615,1.742-1.954,2.943l-237.201-36.79
		c0.041-1.585-0.576-3.01-1.65-4.064l123.826-157.472C919.242,103.463,919.986,103.771,920.824,103.867z M1902.551,237.541
		L1762.41,419.578c-0.646-0.389-1.378-0.672-2.175-0.766c-0.64-0.08-1.243,0.012-1.833,0.15l-38.42-123.023
		c1.796-0.737,3.19-2.329,3.437-4.396c0.071-0.585-0.029-1.146-0.138-1.692l178.056-54.083
		C1901.624,236.438,1902.031,237.026,1902.551,237.541z M1569.238,610.665l-140.329-121.361c0.482-0.699,0.86-1.484,0.984-2.387
		l133.184,6.387c0.107,2.664,2.038,4.957,4.771,5.287c0.144,0.018,0.277-0.045,0.419-0.039l4.081,110.705
		C1571.15,609.393,1570.087,609.872,1569.238,610.665z M1060.916,787.172l9.291-182.865c2.626-0.145,4.883-2.057,5.206-4.764
		c0.011-0.08-0.03-0.156-0.02-0.238l126.777-1.131c0.118,1.332,0.688,2.5,1.621,3.402L1062.873,787.84
		C1062.289,787.495,1061.626,787.276,1060.916,787.172z M873.418,583.481c-0.018-0.469,0.012-0.943-0.115-1.379l89.258-39.193
		l102.287,54.037c-0.115,0.314-0.257,0.619-0.319,0.963L873.418,583.481z M-143.076,552.008c-0.674-0.842-1.641-1.395-2.715-1.729
		l35.824-214.311L7.594,457.501L-143.076,552.008z M-293.744,485.585c-0.85,0.746-1.432,1.755-1.699,2.908l-185.756-22.169
		c-0.002-0.082-0.018-0.162-0.02-0.248l155.934-23.911L-293.744,485.585z M-481.326,464.769c-0.225-0.816-0.664-1.535-1.229-2.16
		l93.955-99.581c0.775,0.615,1.654,1.104,2.709,1.226c1.26,0.15,2.426-0.216,3.436-0.817l56.316,77.543L-481.326,464.769z
		 M-483.285,461.989c-0.766-0.623-1.652-1.105-2.707-1.232c-3.033-0.363-5.785,1.805-6.148,4.836
		c-0.029,0.232,0.057,0.445,0.053,0.67l-10.066,0.863l105.729-97.195L-483.285,461.989z M-492.012,467.153
		c0.023,0.158,0.004,0.328,0.033,0.486l-16.818,5.594l5.563-5.115L-492.012,467.153z M-246.072,433.422
		c0.713,0.48,1.5,0.852,2.414,0.961c0.709,0.084,1.391,0.004,2.045-0.17l-38.725,43.434L-246.072,433.422z M-237.553,429.665
		c0.008-0.041,0.031-0.078,0.041-0.119c0.154-1.334-0.24-2.576-0.91-3.619l14.107-11.102L-237.553,429.665z M-246.613,432.956
		l-40.453,52.221c-0.711-0.486-1.498-0.855-2.41-0.963c-1.256-0.152-2.416,0.215-3.43,0.811l-31.254-43.036l75.828-11.623
		C-248.045,431.397-247.4,432.254-246.613,432.956z M-559.734,490.93l46.646-15.509l-17.254,15.871l-29.334,0.273
		C-559.715,491.354-559.678,491.133-559.734,490.93z M-559.566,492.979c0-0.008,0-0.008,0-0.008l27.676-0.262l-28.912,26.58
		c-0.809-0.693-1.748-1.236-2.881-1.369c-0.174-0.02-0.336,0.043-0.512,0.043l-0.461-20.234
		C-562.082,497.538-559.887,495.649-559.566,492.979z M-529.963,492.688l6.814-0.066l-33.789,24.861L-529.963,492.688z
		 M-528.422,491.27l18.316-16.837l18.416-6.123c0.113,0.297,0.26,0.576,0.426,0.848l-29.955,22.042L-528.422,491.27z
		 M-490.83,469.81c0.867,1.021,2.09,1.764,3.529,1.938c2.832,0.338,5.342-1.576,5.967-4.295l181.324,21.646l-219.879,2.092
		L-490.83,469.81z M-239.645,434.17l3.596,4.746l-44.285,40.881L-239.645,434.17z M-238.965,433.411l21.094-23.66l90.918-71.528
		l-108.363,100.024L-238.965,433.411z M245.764,198.965c0.623,0.719,1.441,1.217,2.373,1.545l-31.012,126.651l-30.371-4.436
		l-27.045-64.354L245.764,198.965z M785.506,264.552c0.049,1.3,0.461,2.493,1.275,3.427l-62.529,69.656l-74.303-78.229
		c0.645-0.755,1.123-1.634,1.283-2.679L785.506,264.552z M1033.36,302.667c-0.021,0.747,0.088,1.45,0.348,2.112l-161.345,85.608
		L794.445,268.64c0.84-0.696,1.396-1.672,1.711-2.763L1033.36,302.667z M1563.211,491.809c-0.047,0.193-0.15,0.352-0.176,0.551
		l-133.183-6.394c-0.085-2.068-1.262-3.857-3.09-4.721l11.748-36.303L1563.211,491.809z M868.648,578.155
		c-0.367-0.047-0.705,0.063-1.059,0.08l-13.141-88.453c1.354-0.303,2.512-1.107,3.295-2.234l50.676,26.766l-38.027,64.412
		C869.854,578.467,869.283,578.227,868.648,578.155z M723.41,338.573l-96.658,107.666l19.193-184.877
		c1.158-0.046,2.26-0.361,3.148-1.026L723.41,338.573z M924.227,477.55l-43.242-19.297l20.424-20l24.139,37.708
		C925.018,476.401,924.563,476.935,924.227,477.55z M923.938,478.413c-0.127,0.379-0.326,0.723-0.375,1.133
		c-0.006,0.066,0.027,0.125,0.021,0.193l-64.965,3.689c-0.162-0.854-0.463-1.656-0.98-2.334l22.639-22.158L923.938,478.413z
		 M856.637,480.19c-0.779-0.625-1.666-1.111-2.723-1.24c-0.539-0.063-1.033,0.039-1.535,0.119l-10.568-37.303l37.15,16.573
		L856.637,480.19z M812.217,423.842l20.203-10.715l7.596,26.844l-27.793-12.398c0.137-0.377,0.326-0.721,0.375-1.135
		C812.715,425.516,812.525,424.649,812.217,423.842z M811.592,422.631c-0.873-1.243-2.211-2.155-3.832-2.348
		c-0.238-0.029-0.463,0.057-0.691,0.063l-14.994-149.658l39.959,141.102L811.592,422.631z M811.941,428.438l28.4,12.666
		l10.842,38.297c-0.359,0.154-0.713,0.307-1.029,0.529l-39.398-50.073C811.217,429.446,811.639,428.991,811.941,428.438z
		 M934.531,480.528l189.857-10.795c0.032,0.172,0,0.369,0.052,0.539l-135.653,59.552l-55.219-46.529
		c0.492-0.723,0.871-1.516,0.986-2.436C934.568,480.745,934.518,480.642,934.531,480.528z M929.715,474.708
		c-1.076-0.127-2.08,0.15-3.002,0.594l-24.316-38.002l133.044-130.205c0.008,0.012,0.017,0.024,0.03,0.037L931.424,475.274
		C930.887,475.019,930.336,474.78,929.715,474.708z M1034.433,306.188L901.65,436.135l-28.553-44.596l161.234-85.542
		C1034.372,306.052,1034.38,306.134,1034.433,306.188z M900.672,437.096l-21.018,20.565l-38.16-17.03l-7.963-28.104l38.385-20.365
		L900.672,437.096z M833.15,411.19l-40.143-141.75c0.094-0.041,0.182-0.1,0.271-0.142l77.9,121.715L833.15,411.19z M790.283,269.891
		c0.238,0.029,0.451-0.055,0.695-0.056l15.09,150.591c-0.838,0.158-1.615,0.457-2.277,0.955l-78.578-82.734l62.621-69.752
		C788.555,269.387,789.357,269.777,790.283,269.891z M802.936,422.301c-0.668,0.797-1.193,1.717-1.32,2.827
		c-0.049,0.416,0.053,0.795,0.1,1.191l-176.727,36.883l1.514-14.611l97.865-109.004L802.936,422.301z M625.113,448.062
		l-13.09,14.586c-0.48-0.324-1.016-0.543-1.594-0.717l32.676-187.221L625.113,448.062z M614.33,466.884
		c-0.002-0.096-0.006-0.184-0.016-0.283l9.063-1.893l-0.283,2.797L614.33,466.884z M614.156,465.468
		c-0.23-0.713-0.602-1.348-1.084-1.904l11.795-13.141l-1.357,13.09L614.156,465.468z M596.969,449.888L479.848,290.927l2.375-7.575
		l5.965-0.979L596.969,449.888z M210.693,524.782l-59.725-103.993l52.055-44.983c0.826,0.777,1.838,1.381,3.059,1.524
		c0.135,0.019,0.264-0.042,0.404-0.032l6.912,149.113L210.693,524.782z M57.23,432.446c0.219-0.496,0.441-0.992,0.514-1.559
		c0.082-0.736,0.01-1.445-0.176-2.125l8.424-3.182l-1.813,11.045L57.23,432.446z M87.928,313.702l48.363,84.221l-68.873,26.037
		l18.084-109.812C86.367,314.195,87.168,314.021,87.928,313.702z M202.232,374.969l-51.846,44.803l-12.309-21.438l63.779-24.11
		C201.979,374.481,202.072,374.737,202.232,374.969z M201.717,369.733c-0.197,0.464-0.418,0.925-0.473,1.45
		c-0.096,0.736-0.018,1.455,0.164,2.128l-63.846,24.131l-48.436-84.351c0.527-0.396,0.963-0.9,1.326-1.465L201.717,369.733z
		 M66.182,424.417l-9.049,3.43c-0.604-1.213-1.58-2.143-2.861-2.656l2.635-10.178l26.82-97.079L66.182,424.417z M67.219,425.116
		l69.596-26.3l12.541,21.853l-45.844,39.626l-38.291-23.042L67.219,425.116z M149.938,421.682l58.389,101.674l-103.779-62.443
		L149.938,421.682z M302.73,341.107l54.953,8.034c-0.002,0.121,0.02,0.233,0.023,0.36l-144.145,20.849L302.73,341.107z
		 M469.201,286.515L469.201,286.515l-65.293,38.277l59.293-36.313L469.201,286.515z M477.814,288.168
		c0.93-0.867,1.611-1.996,1.775-3.353c0.043-0.354-0.059-0.673-0.082-1.014l1.393-0.233l-1.936,6.171L477.814,288.168z
		 M481.256,282.447l-1.838,0.302c-0.203-0.771-0.564-1.48-1.066-2.091l1.951-1.759c0.484,0.491,1.049,0.88,1.697,1.167
		L481.256,282.447z M479.762,278.34c0.061,0.081,0.111,0.162,0.174,0.244l-1.961,1.752c-0.184-0.188-0.389-0.361-0.609-0.527
		L479.762,278.34z M468.738,285.167l-0.268,0.082l0.26-0.156C468.742,285.119,468.729,285.146,468.738,285.167z M459.336,289.751
		l-91.783,56.2c-0.258-0.35-0.605-0.621-0.943-0.896l20.879-31.742L459.336,289.751z M365.6,344.327
		c-0.561-0.287-1.15-0.525-1.818-0.601c-1.246-0.148-2.404,0.214-3.41,0.805l-13.238-17.986l38.459-12.609L365.6,344.327z
		 M359.457,345.165c-0.748,0.671-1.262,1.562-1.547,2.574l-52.162-7.626l40.275-13.204L359.457,345.165z M368.273,350.919
		c0.119-0.35,0.299-0.667,0.344-1.048c0.125-1.08-0.152-2.089-0.594-3.006l101.586-59.561c0.605,0.875,1.469,1.51,2.488,1.91
		l-27.223,98.453L368.273,350.919z M482.578,282.232l0.559-1.791c0.137,0.027,0.254,0.111,0.396,0.132
		c1.113,0.134,2.143-0.165,3.072-0.628l0.955,1.47L482.578,282.232z M479.334,277.506l-2.84,1.732
		c-0.41-0.195-0.85-0.335-1.314-0.429l0.699-5.866l2.977,1.009c-0.039,0.165-0.137,0.299-0.162,0.468
		C478.568,275.537,478.863,276.569,479.334,277.506z M468.645,284.046l-4.035,2.477l-75.861,24.88l31.49-47.879l48.609,19.249
		c-0.074,0.252-0.217,0.468-0.242,0.735C468.578,283.69,468.645,283.865,468.645,284.046z M299.566,340.644l-87.941,28.842
		c-0.625-1.293-1.691-2.267-3.092-2.758l9.316-38.025L299.566,340.644z M207.516,366.385c-0.047-0.001-0.084-0.037-0.125-0.039
		c-0.771-0.092-1.523-0.018-2.227,0.194l-17.775-42.292l29.396,4.301L207.516,366.385z M204.082,367.094
		c-0.799,0.451-1.488,1.031-1.984,1.803L90.84,310.783c0.086-0.197,0.143-0.404,0.201-0.62l94.941,13.883L204.082,367.094z
		 M56.531,433.59l0.338,0.203l7.039,4.436l-9.959,60.463c-0.02-0.006-0.045,0.004-0.07,0.008l-1.176-63.061
		C54.25,435.504,55.596,434.766,56.531,433.59z M420.205,475.905c-0.838-0.098-1.631,0.023-2.371,0.271l-52.148-122.165
		c0.82-0.44,1.527-1.025,2.041-1.813l76.768,36.836l-24.045,86.952C420.359,475.968,420.295,475.917,420.205,475.905z
		 M614.111,468.7c0.055-0.18,0.137-0.344,0.172-0.529l8.682,0.617l-0.396,3.717L614.111,468.7z M858.326,486.387
		c0.162-0.421,0.369-0.82,0.424-1.291c0.012-0.088-0.025-0.17-0.02-0.26l64.967-3.693c0.256,1.447,1.045,2.693,2.225,3.527
		L909.084,513.2L858.326,486.387z M990.016,530.862l135.089-59.31c0.478,0.803,1.093,1.516,1.922,1.979l-55.279,120.251
		c-0.393-0.139-0.749-0.336-1.172-0.391c-1.725-0.201-3.3,0.467-4.455,1.588L990.016,530.862z M1072.647,594.081l55.273-120.257
		c0.384,0.145,0.742,0.342,1.172,0.398c1.104,0.127,2.108-0.164,3.04-0.621l40.992,67.937l-98.759,54.133
		C1073.906,595.034,1073.336,594.477,1072.647,594.081z M1208.219,592.17c-1.098-0.129-2.108,0.162-3.043,0.607l-30.493-50.535
		l105.069-57.597l-69.763,108.107C1209.436,592.483,1208.859,592.249,1208.219,592.17z M1282.049,483.382l15.653-8.58
		c0.166,0.236,0.383,0.422,0.585,0.623c0.071,0.078,0.126,0.154,0.192,0.227l-81.807,109.044L1282.049,483.382z M1304.052,466.497
		c-0.407-0.15-0.792-0.35-1.25-0.408c-0.305-0.033-0.591,0.059-0.898,0.078l-1.911-10.596l29.384-45.536L1304.052,466.497z
		 M1300.47,466.341c-1.995,0.641-3.55,2.371-3.807,4.592c-0.004,0.014,0.003,0.027-0.001,0.041l-6.544-0.111l8.729-13.516
		L1300.47,466.341z M1296.741,472.021c0.046,0.553,0.13,1.07,0.332,1.564l-13.471,7.387l5.861-9.076L1296.741,472.021z
		 M1420.082,482.905c-0.481,0.645-0.84,1.369-1.006,2.195l-102.734-12.262c0.102-2.844-1.921-5.363-4.805-5.709
		c-1.735-0.199-3.317,0.477-4.472,1.617c-0.141-0.186-0.348-0.305-0.507-0.469c-0.488-0.648-1.117-1.17-1.844-1.557l25.707-57.325
		c0.413,0.158,0.8,0.359,1.249,0.41c1.703,0.205,3.274-0.443,4.426-1.557L1420.082,482.905z M1287.995,471.874l-6.689,10.357
		l-107.329,58.835l-40.982-67.904c1.195-0.875,2.055-2.199,2.245-3.787c0.005-0.014-0.003-0.027-0.005-0.041L1287.995,471.874z
		 M644.264,261.14l-34.998,200.537c-1.002-0.061-1.924,0.188-2.764,0.602L489.523,282.155l150.934-24.819
		C640.939,259.18,642.391,260.592,644.264,261.14z M386.85,312.017l-40.602,13.321l-92.637-125.887
		c0.465-0.419,0.877-0.888,1.182-1.446l164.262,65.05L386.85,312.017z M249.287,200.89c1.244,0.146,2.404-0.215,3.418-0.808
		l92.432,125.619l-42.545,13.949l-84.4-12.336l30.971-126.464C249.201,200.853,249.24,200.881,249.287,200.89z M83.953,313.779
		l-13.369,48.418l12.602-48.672C83.418,313.656,83.703,313.69,83.953,313.779z M47.307,427.913
		c-0.248,0.518-0.477,1.061-0.549,1.666c-0.131,1.078,0.152,2.068,0.588,2.982l-29.203,18.321l-46.941-68.833L47.307,427.913z
		 M55.055,498.92l9.9-60.037l36.639,23.073l-44.252,38.238C56.703,499.59,55.945,499.167,55.055,498.92z M209.703,525.749
		l1.154,2.027c-0.379,0.283-0.674,0.672-0.969,1.053l-106.145-66.832L209.703,525.749z M219.705,530.206l-0.641-0.395
		c-0.262-0.529-0.574-1.008-0.984-1.428l29.553-36.299l9.924,28.764L219.705,530.206z M217.123,527.553
		c-0.688-0.438-1.443-0.766-2.301-0.867c-0.137-0.02-0.264,0.043-0.414,0.031l-6.926-149.5c0.158-0.024,0.326-0.003,0.486-0.041
		l39.176,113.501L217.123,527.553z M209.039,376.754c0.902-0.422,1.668-1.037,2.225-1.855l91.715,47.205l-54.988,67.528
		L209.039,376.754z M211.813,373.741c0.156-0.413,0.355-0.799,0.416-1.248c0.031-0.328-0.068-0.626-0.076-0.935l145.637-21.069
		c0.234,0.978,0.742,1.824,1.434,2.53l-55.428,68.066L211.813,373.741z M360.18,353.842c0.084,0.06,0.143,0.139,0.229,0.191
		l-33.443,78.981l-22.016-11.338L360.18,353.842z M361.607,354.427c0.289,0.091,0.551,0.25,0.865,0.282
		c0.83,0.104,1.623-0.023,2.377-0.271l52.143,122.173c-0.793,0.422-1.479,0.988-1.977,1.734l-86.934-44.754L361.607,354.427z
		 M445.551,389.539l1.871,0.894l-18.053,57.629L445.551,389.539z M445.928,388.18l27.271-98.601c0.082,0.01,0.148,0.063,0.244,0.074
		c0.934,0.112,1.813-0.085,2.641-0.402l1.947,3.503l-30.189,96.34L445.928,388.18z M478.826,294.199l83.031,149.596l-112.922-54.18
		L478.826,294.199z M479.84,293.002l125.354,170.144c-0.326,0.305-0.629,0.635-0.875,1.025l-40.174-19.28L479.84,293.002z
		 M613.6,470.042l8.824,3.959l-6.314,60.886c-0.018-0.006-0.029-0.004-0.043-0.002l-6.26-62.373
		C611.383,472.253,612.762,471.384,613.6,470.042z M623.963,473.126l0.434-4.236l98.113,6.945l-39.627,23.789L623.963,473.126z
		 M624.537,467.597l0.326-3.195l177.004-36.94c0.063,0.207,0.201,0.373,0.293,0.58l-77.709,46.635L624.537,467.597z
		 M802.713,429.125c0.887,1.148,2.193,1.961,3.74,2.148c0.742,0.086,1.465,0.016,2.146-0.172l19.639,50.92l-101.666-7.199
		L802.713,429.125z M809.531,430.637c0.23-0.113,0.469-0.197,0.676-0.342l39.402,50.071c-0.873,0.779-1.482,1.824-1.723,3.047
		l-18.502-1.314L809.531,430.637z M847.834,484.71c0.012,0.111,0.016,0.227,0.037,0.338l-15.91,3.746l-2.061-5.359L847.834,484.71z
		 M848.117,486.319c0.688,1.891,2.348,3.357,4.48,3.617c0.369,0.039,0.705-0.066,1.061-0.09l13.137,88.455
		c-0.098,0.025-0.201-0.004-0.307,0.027l-34.059-88.314L848.117,486.319z M909.848,513.6l16.811-28.48
		c0.545,0.264,1.109,0.5,1.742,0.578c1.723,0.203,3.307-0.467,4.455-1.586l54.826,46.197l-25.232,11.08L909.848,513.6z
		 M988.906,531.346l76.413,64.385l-101.245-53.484L988.906,531.346z M1074.997,596.885l98.834-54.188l30.492,50.521
		c-1.202,0.877-2.061,2.201-2.252,3.781c-0.01,0.09,0.024,0.166,0.013,0.248l-126.764,1.129
		C1075.27,597.86,1075.184,597.358,1074.997,596.885z M1211.203,593.635l88.027-117.333c0.792,0.662,1.71,1.18,2.813,1.311
		c0.271,0.031,0.532-0.059,0.806-0.068l10.21,65.162l-100.965,51.902C1211.846,594.231,1211.543,593.928,1211.203,593.635z
		 M1304.224,477.435c0.893-0.258,1.635-0.787,2.293-1.432c0.876,1.137,2.18,1.93,3.713,2.111c2.883,0.348,5.439-1.619,6.012-4.41
		l102.728,12.262c-0.025,0.748,0.092,1.462,0.337,2.121l-104.952,53.953L1304.224,477.435z M1425.438,480.804
		c-0.126-0.027-0.229-0.104-0.356-0.117c-1.704-0.205-3.274,0.451-4.425,1.559l-83.993-74.649c0.188-0.248,0.394-0.467,0.538-0.742
		l100.005,37.59L1425.438,480.804z M1328.873,408.51l-29.202,45.268l-6.566-36.374l34.241-10.888
		C1327.7,407.305,1328.215,407.963,1328.873,408.51z M1298.524,455.55l-9.868,15.289l-153.502-2.551
		c-0.017-0.211-0.014-0.436-0.056-0.645l156.621-49.792L1298.524,455.55z M1124.255,468.065c-0.004,0.09,0.025,0.174,0.021,0.262
		L934.412,479.12c-0.262-1.295-0.98-2.402-2.01-3.205l104.054-168.138c0.53,0.252,1.089,0.48,1.701,0.555
		c0.996,0.121,1.919-0.105,2.781-0.47l85.71,156.354C1125.384,465.079,1124.454,466.425,1124.255,468.065z M488.9,281.194
		l-1.211-1.865c1.07-0.871,1.82-2.122,1.998-3.595c0.029-0.279-0.059-0.524-0.068-0.793l133.518-15.818L488.9,281.194z
		 M479.26,272.719l-3.223-1.104l12.258-102.717l-4.299,100.755C481.936,269.738,480.135,270.895,479.26,272.719z M488.131,162.871
		L475.18,271.324l-49.096-16.698l60.652-92.214C487.168,162.621,487.635,162.771,488.131,162.871z M475.027,272.645l-0.729,6.064
		c-2.143-0.082-4.078,1.032-5.053,2.838l-48.287-19.125l4.385-6.67L475.027,272.645z M419.779,261.959l-145.135-57.473
		l149.484,50.854L419.779,261.959z M185.338,322.516l-94.072-13.754c0.014-0.971-0.229-1.865-0.678-2.678l68.088-47.004
		L185.338,322.516z M89.994,305.111c-0.629-0.737-1.479-1.236-2.43-1.566l29.637-121.414l2.594-10.001
		c0.014,0.006,0.029,0.019,0.041,0.017c0.77,0.092,1.521,0.014,2.217-0.193l36.178,86.061L89.994,305.111z M86.66,303.248
		c-0.07-0.012-0.113-0.047-0.184-0.061c-0.219-0.023-0.412,0.059-0.625,0.055l14.184-54.802L86.66,303.248z M81.998,312.557
		L52.947,424.75c-0.012,0.002-0.025-0.012-0.039-0.008c-1.539-0.184-3.006,0.291-4.121,1.191L-54.18,323.292l134.65-13.494
		C80.693,310.878,81.225,311.801,81.998,312.557z M48.002,426.84c-0.031,0.037-0.066,0.074-0.098,0.113l-78.23-47.142
		l-37.609-55.149l12.211-1.217L48.002,426.84z M-98.467,282.378l15.646,22.938l-24.875,17.072l6.584-39.398
		C-100.16,283.025-99.27,282.791-98.467,282.378z M-82.008,306.506l11.748,17.234l-38.311,3.844l0.539-3.219L-82.008,306.506z
		 M-110.031,327.729l-0.529,0.052c-0.098-0.48-0.285-0.904-0.5-1.333l1.4-0.965L-110.031,327.729z M-116.033,334.346
		c1.285,0.03,2.5-0.323,3.469-1.063l1.365,1.421l-28.938,173.08L-116.033,334.346z M-111.701,332.329
		c0.049-0.052,0.096-0.104,0.139-0.156l0.715,0.434l-0.088,0.5L-111.701,332.329z M-110.959,331.215
		c0.238-0.517,0.477-1.055,0.545-1.662c0.021-0.217-0.053-0.41-0.055-0.626l0.24-0.019l-0.422,2.502L-110.959,331.215z
		 M-108.764,328.763l39.252-3.935l36.314,53.253l-76.143-45.88L-108.764,328.763z M-68.668,323.588l-12.188-17.872l4.352-2.989
		l19.736,19.668L-68.668,323.588z M-81.668,304.523l-14.816-21.715l18.947,18.883L-81.668,304.523z M-109.328,323.51l-2.518,1.72
		c-0.596-0.661-1.373-1.137-2.248-1.443l11.043-37.84L-109.328,323.51z M18.854,451.925l29.08-18.243
		c0.877,1.096,2.166,1.863,3.662,2.043c0.137,0.014,0.268-0.035,0.408-0.031l1.172,63.061c-0.719,0.059-1.379,0.244-2.004,0.561
		L18.854,451.925z M257.945,521.969l12.414,35.959c-0.789,0.369-1.443,0.891-1.975,1.566l-47.25-28.43L257.945,521.969z
		 M617.535,535.022l6.271-60.392l57.572,25.888l-60.73,36.445C619.896,535.989,618.799,535.329,617.535,535.022z M871.127,579.178
		l38.063-64.465l51.746,27.342l-88.293,38.76C872.244,580.172,871.754,579.62,871.127,579.178z M1507.976,231.537
		c0.394,0.044,0.773-0.057,1.146-0.096l57.511,256.512c-1.287,0.469-2.366,1.373-3.007,2.6l-124.699-46.873l68.7-212.259
		C1507.749,231.439,1507.845,231.516,1507.976,231.537z M-119.439,333.021c0.623,0.533,1.344,0.916,2.166,1.139l-29.977,215.854
		c-1.102-0.021-2.115,0.27-3.014,0.824l-84.283-111.572L-119.439,333.021z M-109.701,334.38l0.162-0.985l77.869,46.922
		l48.629,71.312l-8.242,5.164L-109.701,334.38z M17.672,452.673l30.941,45.367L9.609,457.726L17.672,452.673z M59.105,504.6
		c0.105-1.314-0.27-2.553-0.98-3.572l44.479-38.437l106.66,67.154c-0.154,0.313-0.24,0.664-0.334,1.006L59.105,504.6z
		 M219.561,531.686l38.082,22.902l-38.496-20.18c0.221-0.496,0.447-0.996,0.514-1.568
		C219.709,532.438,219.604,532.073,219.561,531.686z M273.316,557.352c-0.652-0.078-1.281,0.02-1.893,0.158l-12.359-35.824
		l33.896-8.381l-18.771,44.336C273.891,557.559,273.631,557.391,273.316,557.352z M258.676,520.565l-10.195-29.529l55.635-68.342
		l22.344,11.502l-32.92,77.748L258.676,520.565z M327.578,434.768l86.883,44.727c-0.15,0.414-0.348,0.799-0.408,1.248
		c-0.059,0.477,0.053,0.922,0.115,1.373l-119.109,29.453L327.578,434.768z M421.74,476.411l26.775-85.452l114.508,54.942
		l12.867,23.178l-150.982,11.365C424.584,478.638,423.42,477.149,421.74,476.411z M565.314,446.997l38.449,18.449
		c-0.109,0.35-0.291,0.664-0.344,1.041c-0.021,0.176,0.049,0.336,0.043,0.52l-25.963,1.951L565.314,446.997z M603.553,468.099
		c0.416,2.336,2.232,4.244,4.703,4.541c0.303,0.035,0.563-0.063,0.855-0.072l6.262,62.378c-0.383,0.057-0.736,0.143-1.096,0.281
		l-36.193-65.208L603.553,468.099z M621.207,538.053l61.531-36.922l33.332,14.984l-94.668,22.318
		C621.363,538.299,621.266,538.18,621.207,538.053z M684.234,500.231l40.398-24.242l104.129,7.369l2.189,5.677l-112.584,26.541
		L684.234,500.231z M831.422,490.258l34.148,88.527c-0.918,0.463-1.717,1.094-2.256,1.967L720.303,516.45L831.422,490.258z
		 M1212.683,595.754l100.59-51.709l29.563,188.654c-0.697,0.203-1.341,0.543-1.912,0.988l-129.188-132.551
		c0.666-0.799,1.192-1.717,1.321-2.82C1213.166,597.411,1212.985,596.555,1212.683,595.754z M1345.021,732.522
		c-0.278-0.029-0.531,0.059-0.813,0.068l-29.648-189.201l105.335-54.148c0.556,0.826,1.316,1.463,2.244,1.896l-76.777,241.496
		C1345.246,732.614,1345.144,732.536,1345.021,732.522z M1572.236,489.147l142.958-193.453c0.616,0.354,1.321,0.596,2.072,0.688
		c0.64,0.072,1.248-0.022,1.839-0.146l38.415,123.025c-1.79,0.738-3.184,2.328-3.432,4.389c-0.081,0.678,0.005,1.336,0.153,1.967
		l-180.854,65.105C1573.091,490.124,1572.724,489.604,1572.236,489.147z M1714.186,294.836L1571.234,488.28
		c-0.623-0.348-1.321-0.588-2.077-0.682c-0.396-0.045-0.767,0.063-1.154,0.092l-57.504-256.502c1.404-0.515,2.513-1.576,3.122-2.967
		l198.935,61.633c-0.025,0.138-0.108,0.247-0.121,0.383C1712.215,292.04,1712.964,293.675,1714.186,294.836z M1506.293,230.979
		l-68.68,212.203l-99.996-37.586c0.044-0.213,0.171-0.395,0.2-0.627c0.186-1.52-0.283-2.977-1.171-4.089l168.656-170.539
		C1505.619,230.591,1505.932,230.81,1506.293,230.979z M1326.833,403.661c-0.075,0.602,0.021,1.176,0.136,1.74l-34.079,10.832
		l-39.398-218.296l76.34,201.55C1328.259,400.313,1327.059,401.766,1326.833,403.661z M1250.837,196.416
		c0.307,0.033,0.6-0.066,0.899-0.077l39.774,220.339l-156.79,49.843c-0.759-1.721-2.303-3.055-4.318-3.291
		c-0.989-0.121-1.912,0.111-2.772,0.477l-85.712-156.353c1.264-0.873,2.195-2.211,2.388-3.852c0.113-0.928-0.076-1.801-0.394-2.621
		l203.066-106.864C1247.85,195.289,1249.194,196.218,1250.837,196.416z M640.352,256.063l-150.813,17.872
		c-0.479-2.247-2.283-4.057-4.689-4.347l4.559-106.652c1.654-0.059,3.111-0.829,4.092-2.078l147.373,92.633
		c-0.275,0.555-0.508,1.133-0.584,1.785C640.256,255.549,640.344,255.794,640.352,256.063z M485.729,161.68l-60.861,92.529
		l-169.59-57.689c0.033-0.166,0.133-0.297,0.148-0.466c0.041-0.302-0.047-0.572-0.066-0.867l228.533-36.179
		C484.195,160.084,484.877,160.973,485.729,161.68z M245.174,197.994l-85.918,59.309l-36.109-85.904
		c1.205-0.676,2.094-1.765,2.523-3.134l118.809,26.383c-0.002,0.032-0.027,0.058-0.037,0.09
		C244.301,195.923,244.637,197.023,245.174,197.994z M80.35,308.333c-0.008,0.106,0.029,0.212,0.027,0.319l-135.609,13.59
		l-20.264-20.201l23.096-15.854L80.35,308.333z M-76.535,301.002l-20.137-20.073c0.459-0.575,0.785-1.23,0.988-1.958l41.229,6.875
		L-76.535,301.002z M-102.74,282.649l-11.949,40.94c-0.199-0.049-0.359-0.164-0.563-0.184c-3.033-0.364-5.791,1.806-6.145,4.83
		c-0.027,0.199,0.047,0.38,0.037,0.567l-26.992,2.993l44.355-49.736C-103.613,282.32-103.191,282.489-102.74,282.649z
		 M-121.24,330.186c0.141,0.61,0.422,1.156,0.754,1.679l-93.566,73.605l64.322-72.123L-121.24,330.186z M-248.434,429.065
		l-76.588,11.742l-56.598-77.918c0.418-0.37,0.791-0.781,1.088-1.256l132.451,65.315c-0.16,0.422-0.367,0.82-0.416,1.283
		C-248.533,428.516-248.443,428.778-248.434,429.065z M-504.256,467.3l-29.482,2.521l139.236-103.415L-504.256,467.3z
		 M-505.332,468.292l-6.451,5.932l-48.223,16.039c-0.107-0.236-0.227-0.453-0.352-0.668l25.258-18.757L-505.332,468.292z
		 M-561.064,488.594c-0.857-0.922-1.988-1.605-3.336-1.762c-2.611-0.316-4.916,1.299-5.764,3.672l-40.951-11.949
		c0.047-0.193,0.162-0.361,0.188-0.566c0.027-0.232-0.055-0.438-0.053-0.666l73.557-6.293L-561.064,488.594z M-220.496,410.542
		l-17.156,13.5l84.811-90.352l0.977-0.104L-220.496,410.542z M-611.309,479.147l40.939,11.951c-0.041,0.199-0.16,0.367-0.18,0.57
		c-0.369,3.035,1.799,5.785,4.832,6.148c0.178,0.021,0.336-0.049,0.512-0.043l0.471,20.234c-1.342,0.098-2.535,0.639-3.443,1.549
		l-43.953-38.882C-611.777,480.214-611.516,479.714-611.309,479.147z M-559.73,520.504l37.91-27.893l219.25-2.088l-256.449,31.525
		C-559.15,521.485-559.428,520.989-559.73,520.504z M-285.688,486.471l50.406-46.527l84.223,111.473
		c-0.424,0.381-0.832,0.797-1.113,1.291l-132.846-61.191c0.131-0.383,0.336-0.734,0.385-1.156
		C-284.467,488.915-284.889,487.555-285.688,486.471z M-142.475,553.133L8.488,458.433l40.93,42.298
		c-0.643,0.781-1.15,1.686-1.279,2.773c-0.063,0.494,0.051,0.951,0.113,1.428l-190.514,48.621
		C-142.316,553.407-142.412,553.274-142.475,553.133z M208.686,531.739c-0.234,2.943,1.871,5.58,4.828,5.932
		c2.221,0.27,4.281-0.84,5.367-2.641l48.549,25.457l0.252,0.146c-0.035,0.072-0.043,0.154-0.068,0.223L65.949,506.817
		L208.686,531.739z M275.375,558.038l19.105-45.107l119.926-29.65c0.047,0.104,0.104,0.191,0.154,0.295l-137.383,76.183
		C276.705,559.069,276.119,558.454,275.375,558.038z M425.002,481.546l151.48-11.408l36.492,65.755
		c-0.777,0.584-1.342,1.391-1.727,2.307l-186.322-55.798c0.027-0.123,0.096-0.219,0.111-0.35
		C425.059,481.874,424.992,481.714,425.002,481.546z M621.654,539.706l96.354-22.717l144.717,65.072l-240.996-41.49
		C621.736,540.276,621.686,539.993,621.654,539.706z M873.373,584.629l191.118,14.428c0.089,2.619,1.948,4.857,4.587,5.266
		l-9.284,182.863c-1.047,0.061-2.032,0.357-2.864,0.932L872.166,587.129C872.758,586.418,873.197,585.59,873.373,584.629z
		 M1063.86,788.696l140.911-186.271c0.641,0.375,1.353,0.633,2.139,0.73c1.52,0.186,2.977-0.275,4.091-1.158l129.194,132.543
		c-0.666,0.799-1.186,1.717-1.32,2.82c-0.037,0.326,0.056,0.641,0.077,0.961l-273.651,52.545
		C1065.006,790.018,1064.498,789.307,1063.86,788.696z M1346.66,733.057l76.776-241.498c0.118,0.027,0.212,0.1,0.335,0.111
		c1.69,0.201,3.243-0.426,4.396-1.514l140.337,121.359c-0.514,0.723-0.91,1.533-1.023,2.471c-0.106,0.941,0.089,1.814,0.407,2.643
		l-219.05,118.209C1348.289,734.057,1347.54,733.473,1346.66,733.057z M1573.634,609.151c-0.143-0.02-0.277,0.037-0.422,0.033
		l-4.085-110.699c2.484-0.297,4.557-2.15,4.867-4.732c0.081-0.684-0.011-1.346-0.16-1.969l180.859-65.105
		c0.175,0.363,0.311,0.754,0.56,1.063l-178.985,182.563C1575.506,609.733,1574.649,609.276,1573.634,609.151z M1901.004,234.688
		l-178.062,54.084c-0.755-1.76-2.323-3.131-4.361-3.374c-0.122-0.013-0.226,0.032-0.347,0.026l-5.983-158.227
		c1.495-0.21,2.792-0.977,3.664-2.161l185.44,106.454c-0.203,0.479-0.427,0.961-0.494,1.508
		C1900.791,233.584,1900.896,234.137,1901.004,234.688z M1710.869,127.299c0.121,0.015,0.231-0.028,0.347-0.023l5.991,158.23
		c-1.908,0.262-3.507,1.451-4.278,3.21l-198.928-61.639c0.026-0.138,0.107-0.248,0.119-0.386c0.11-0.912-0.071-1.775-0.375-2.582
		l193.239-99.266C1707.851,126.142,1709.205,127.104,1710.869,127.299z M1504.308,229.48L1335.652,400.02
		c-0.765-0.604-1.636-1.073-2.673-1.197c-0.694-0.085-1.37,0.003-2.013,0.16l-76.981-203.239c1.343-0.698,2.344-1.896,2.756-3.427
		l246.446,33.667C1503.167,227.277,1503.537,228.515,1504.308,229.48z M1246.391,192.884l-203.059,106.863
		c-0.871-1.272-2.216-2.202-3.857-2.399c-0.083-0.004-0.14,0.028-0.222,0.016l-9.681-238.395c1.359-0.229,2.516-0.92,3.364-1.969
		l213.594,131.657c-0.233,0.511-0.461,1.02-0.531,1.606C1245.89,191.195,1246.08,192.063,1246.391,192.884z M1028.045,59.087
		c0.08,0.011,0.145-0.021,0.221-0.019l9.673,238.406c-0.441,0.067-0.859,0.191-1.264,0.366L924.75,102.805
		c1.191-0.879,2.043-2.195,2.229-3.773c0.098-0.834-0.025-1.626-0.277-2.373l97.169-40.588
		C1024.681,57.649,1026.15,58.861,1028.045,59.087z M917.678,102.268L793.852,259.74c-0.674-0.427-1.42-0.734-2.258-0.833
		c-0.6-0.075-1.176,0.026-1.736,0.135L711.727,24.816c1.094-0.529,2-1.338,2.551-2.437l201.924,74.699
		c-0.057,0.222-0.18,0.411-0.209,0.642C915.783,99.494,916.496,101.103,917.678,102.268z M705.102,23.385
		c0.58,0.718,1.373,1.208,2.254,1.563l-60.783,225.538c-0.043-0.011-0.086-0.046-0.139-0.046c-1.988-0.241-3.787,0.678-4.945,2.15
		l-147.371-92.637c0.275-0.553,0.508-1.137,0.586-1.783c0.125-1.064-0.141-2.037-0.563-2.946L705.102,23.385z M483.785,157.721
		L255.26,193.9c-0.535-1.887-2.074-3.313-4.045-3.793l19.41-128.471c2.098,0.135,3.998-0.891,5.045-2.584l208.387,96.774
		c-0.111,0.343-0.299,0.66-0.338,1.034C483.686,157.16,483.775,157.426,483.785,157.721z M266.918,59.833
		c0.732,0.808,1.693,1.356,2.793,1.627l-19.414,128.465c-2.563-0.164-4.781,1.468-5.535,3.855l-118.809-26.375
		c0.01-0.041,0.027-0.064,0.029-0.097c0.146-1.252-0.207-2.404-0.809-3.417L266.918,59.833z M-53.141,284.941l-42.316-7.051
		c0.053-0.773-0.059-1.515-0.314-2.207l207.609-103.969L-53.141,284.941z M-150.484,332.035l-0.893,0.098l16.014-17.049
		L-150.484,332.035z M-239.721,424.547c-0.764-0.576-1.621-1.029-2.631-1.154c-2.211-0.256-4.252,0.838-5.35,2.627l-132.459-65.317
		c0.156-0.42,0.367-0.818,0.424-1.287c0.023-0.193-0.055-0.365-0.047-0.561l225.156-24.965L-239.721,424.547z M-536.049,470.021
		l-75.002,6.402c-0.063-0.328-0.113-0.654-0.225-0.963l219.436-112.552L-536.049,470.021z"/>
	<g>
		<path fill="#8FC6A2" d="M263.434,63.644c2.455,3.647,7.375,4.636,10.979,2.207c3.605-2.437,4.533-7.36,2.076-11.012
			c-2.465-3.645-7.377-4.633-10.982-2.204C261.9,55.064,260.971,59.997,263.434,63.644z"/>
		<path fill="#6B6B6B" d="M263.428,63.648c-2.459-3.656-1.527-8.584,2.078-11.014c3.605-2.429,8.518-1.44,10.982,2.204
			c2.457,3.651,1.527,8.581-2.076,11.012C270.809,68.279,265.889,67.291,263.428,63.648 M261.336,65.057
			c3.244,4.809,9.752,6.115,14.506,2.911c4.756-3.206,5.984-9.729,2.738-14.54c-3.244-4.813-9.754-6.116-14.506-2.914
			C259.32,53.721,258.092,60.243,261.336,65.057L261.336,65.057z"/>
	</g>
	<g>
		<path fill="#8FC6A2" d="M862.107,587.817c1.814,2.693,5.447,3.424,8.109,1.629c2.664-1.799,3.35-5.436,1.533-8.133
			c-1.818-2.693-5.447-3.424-8.111-1.629S860.289,585.122,862.107,587.817z"/>
		<path fill="#6B6B6B" d="M862.104,587.819c-1.816-2.699-1.129-6.34,1.535-8.135s6.293-1.064,8.111,1.629
			c1.816,2.697,1.131,6.338-1.533,8.133C867.555,591.241,863.922,590.51,862.104,587.819 M860.559,588.86
			c2.396,3.553,7.203,4.518,10.715,2.15c3.514-2.367,4.42-7.188,2.023-10.74c-2.396-3.555-7.205-4.518-10.715-2.152
			C859.07,580.487,858.162,585.305,860.559,588.86L860.559,588.86z"/>
	</g>
	<g>
		<path fill="#8FC6A2" d="M1034.686,307.38c1.814,2.694,5.447,3.424,8.11,1.63c2.663-1.8,3.349-5.438,1.533-8.134
			c-1.82-2.692-5.449-3.423-8.112-1.629C1033.554,301.043,1032.867,304.686,1034.686,307.38z"/>
		<path fill="#6B6B6B" d="M1034.682,307.383c-1.816-2.7-1.128-6.34,1.535-8.136c2.663-1.794,6.292-1.063,8.112,1.629
			c1.815,2.696,1.129,6.338-1.533,8.134C1040.133,310.804,1036.5,310.074,1034.682,307.383 M1033.137,308.423
			c2.396,3.553,7.203,4.518,10.716,2.15c3.512-2.367,4.419-7.187,2.022-10.739c-2.396-3.556-7.204-4.519-10.716-2.152
			C1031.648,300.05,1030.74,304.867,1033.137,308.423L1033.137,308.423z"/>
	</g>
	<g>
		<path fill="#8FC6A2" d="M704.457,22.151c1.814,2.694,5.447,3.424,8.109,1.63c2.664-1.8,3.35-5.437,1.533-8.134
			c-1.82-2.692-5.449-3.423-8.111-1.629C703.324,15.814,702.639,19.457,704.457,22.151z"/>
		<path fill="#6B6B6B" d="M704.453,22.154c-1.816-2.7-1.129-6.34,1.535-8.136c2.662-1.794,6.291-1.063,8.111,1.629
			c1.816,2.697,1.129,6.338-1.533,8.134C709.904,25.575,706.271,24.846,704.453,22.154 M702.908,23.194
			c2.396,3.553,7.203,4.518,10.715,2.15s4.42-7.187,2.023-10.739c-2.396-3.556-7.205-4.519-10.717-2.152
			C701.42,14.821,700.512,19.639,702.908,23.194L702.908,23.194z"/>
	</g>
	<g>
		<path fill="#8FC6A2" d="M267.51,566.186c1.814,2.695,5.447,3.426,8.109,1.631c2.664-1.799,3.35-5.438,1.535-8.135
			c-1.82-2.691-5.449-3.422-8.113-1.627C266.379,559.85,265.691,563.493,267.51,566.186z"/>
		<path fill="#6B6B6B" d="M267.506,566.19c-1.816-2.701-1.127-6.34,1.535-8.135c2.664-1.795,6.293-1.064,8.113,1.627
			c1.814,2.697,1.129,6.34-1.535,8.135C272.957,569.612,269.324,568.881,267.506,566.19 M265.961,567.231
			c2.396,3.553,7.203,4.516,10.717,2.15c3.512-2.369,4.418-7.188,2.021-10.74c-2.396-3.557-7.203-4.518-10.715-2.152
			C264.473,558.858,263.564,563.674,265.961,567.231L265.961,567.231z"/>
	</g>
	<g>
		<path fill="#8FC6A2" d="M-105.141,280.195c1.814,2.695,5.447,3.424,8.109,1.63c2.664-1.8,3.35-5.437,1.535-8.134
			c-1.82-2.691-5.449-3.422-8.113-1.629C-106.273,273.858-106.959,277.502-105.141,280.195z"/>
		<path fill="#6B6B6B" d="M-105.145,280.198c-1.816-2.7-1.129-6.34,1.535-8.136c2.664-1.793,6.293-1.063,8.113,1.629
			c1.814,2.697,1.129,6.338-1.535,8.134C-99.693,283.619-103.326,282.891-105.145,280.198 M-106.689,281.238
			c2.396,3.553,7.203,4.518,10.717,2.15c3.512-2.367,4.418-7.186,2.021-10.739c-2.396-3.556-7.205-4.519-10.715-2.152
			C-108.178,272.866-109.086,277.684-106.689,281.238L-106.689,281.238z"/>
	</g>
	<g>
		<path fill="#8FC6A2" d="M1051.256,795.331c3.218,4.779,9.659,6.072,14.38,2.891c4.723-3.191,5.938-9.641,2.72-14.424
			c-3.228-4.773-9.662-6.068-14.385-2.887C1049.248,784.094,1048.031,790.553,1051.256,795.331z"/>
		<path fill="#6B6B6B" d="M1051.249,795.336c-3.221-4.789-2.001-11.242,2.722-14.426c4.723-3.182,11.157-1.887,14.385,2.887
			c3.219,4.783,2.002,11.24-2.72,14.424C1060.915,801.403,1054.474,800.11,1051.249,795.336 M1048.509,797.18
			c4.25,6.301,12.773,8.01,19.001,3.814c6.228-4.199,7.836-12.744,3.587-19.045c-4.25-6.305-12.775-8.012-19-3.816
			C1045.87,782.334,1044.26,790.875,1048.509,797.18L1048.509,797.18z"/>
	</g>
	<g>
		<path fill="#8FC6A2" d="M1021.785,58.954c2.563,3.805,7.691,4.834,11.449,2.301c3.76-2.54,4.728-7.675,2.165-11.483
			c-2.57-3.8-7.692-4.831-11.452-2.298C1020.187,50.008,1019.218,55.151,1021.785,58.954z"/>
		<path fill="#6B6B6B" d="M1021.78,58.958c-2.564-3.812-1.594-8.95,2.167-11.484c3.76-2.533,8.882-1.502,11.452,2.298
			c2.563,3.809,1.594,8.949-2.165,11.483C1029.477,63.788,1024.348,62.759,1021.78,58.958 M1019.598,60.428
			c3.385,5.016,10.171,6.377,15.129,3.035c4.959-3.342,6.239-10.145,2.855-15.162c-3.383-5.02-10.171-6.379-15.128-3.038
			C1017.497,48.606,1016.215,55.408,1019.598,60.428L1019.598,60.428z"/>
	</g>
	<g>
		<path fill="#8FC6A2" d="M115.73,170.307c1.814,2.695,5.447,3.424,8.109,1.631c2.664-1.801,3.35-5.438,1.533-8.135
			c-1.82-2.691-5.449-3.422-8.111-1.629C114.598,163.97,113.91,167.613,115.73,170.307z"/>
		<path fill="#6B6B6B" d="M115.727,170.311c-1.816-2.701-1.129-6.341,1.535-8.137c2.662-1.793,6.291-1.063,8.111,1.629
			c1.816,2.697,1.129,6.338-1.533,8.135C121.178,173.73,117.545,173.002,115.727,170.311 M114.182,171.351
			c2.396,3.552,7.203,4.517,10.715,2.149s4.42-7.186,2.023-10.739c-2.396-3.556-7.205-4.519-10.717-2.152
			C112.691,162.978,111.785,167.795,114.182,171.351L114.182,171.351z"/>
	</g>
	<g>
		<path fill="#8FC6A2" d="M-152.391,558.536c1.813,2.695,5.445,3.424,8.109,1.631c2.662-1.801,3.35-5.438,1.533-8.135
			c-1.82-2.691-5.449-3.422-8.111-1.629C-153.523,552.2-154.211,555.842-152.391,558.536z"/>
		<path fill="#6B6B6B" d="M-152.395,558.54c-1.818-2.701-1.129-6.34,1.535-8.137c2.662-1.793,6.291-1.063,8.111,1.629
			c1.816,2.697,1.129,6.338-1.533,8.135C-146.945,561.959-150.578,561.231-152.395,558.54 M-153.939,559.579
			c2.396,3.553,7.203,4.518,10.715,2.15s4.418-7.186,2.021-10.74s-7.203-4.518-10.715-2.15
			C-155.428,551.206-156.336,556.024-153.939,559.579L-153.939,559.579z"/>
	</g>
	<g>
		<path fill="#AFAFAF" d="M640.84,259.791c1.814,2.695,5.447,3.425,8.111,1.631c2.662-1.8,3.348-5.438,1.533-8.135
			c-1.82-2.691-5.449-3.422-8.113-1.628C639.709,253.455,639.021,257.098,640.84,259.791z"/>
		<path fill="#6B6B6B" d="M640.838,259.795c-1.818-2.701-1.129-6.34,1.533-8.136c2.664-1.794,6.293-1.063,8.113,1.628
			c1.814,2.697,1.129,6.339-1.533,8.135C646.287,263.216,642.654,262.486,640.838,259.795 M639.291,260.835
			c2.396,3.553,7.203,4.517,10.717,2.15c3.512-2.368,4.418-7.187,2.021-10.74c-2.396-3.556-7.203-4.519-10.715-2.152
			C637.803,252.462,636.895,257.279,639.291,260.835L639.291,260.835z"/>
	</g>
	<g>
		<path fill="#AFAFAF" d="M604.553,471.198c1.814,2.695,5.447,3.426,8.109,1.631c2.664-1.799,3.35-5.438,1.533-8.135
			c-1.818-2.691-5.447-3.422-8.111-1.629C603.42,464.862,602.734,468.505,604.553,471.198z"/>
		<path fill="#6B6B6B" d="M604.549,471.202c-1.816-2.701-1.129-6.34,1.535-8.137c2.664-1.793,6.293-1.063,8.111,1.629
			c1.816,2.697,1.131,6.338-1.533,8.135C610,474.624,606.367,473.894,604.549,471.202 M603.004,472.243
			c2.396,3.553,7.203,4.516,10.715,2.15c3.514-2.369,4.42-7.188,2.023-10.74c-2.396-3.557-7.205-4.52-10.715-2.152
			C601.516,463.87,600.607,468.687,603.004,472.243L603.004,472.243z"/>
	</g>
	<g>
		<path fill="#AFAFAF" d="M1125.216,472.55c1.814,2.695,5.447,3.426,8.11,1.631c2.663-1.799,3.349-5.438,1.533-8.133
			c-1.82-2.693-5.449-3.424-8.112-1.629S1123.397,469.856,1125.216,472.55z"/>
		<path fill="#6B6B6B" d="M1125.212,472.554c-1.816-2.699-1.128-6.34,1.535-8.135s6.292-1.064,8.112,1.629
			c1.815,2.695,1.129,6.338-1.533,8.133C1130.663,475.976,1127.03,475.245,1125.212,472.554 M1123.667,473.595
			c2.396,3.553,7.203,4.516,10.716,2.15c3.512-2.369,4.419-7.188,2.022-10.74c-2.396-3.557-7.204-4.518-10.716-2.152
			C1122.179,465.222,1121.271,470.038,1123.667,473.595L1123.667,473.595z"/>
	</g>
	<g>
		<path fill="#AFAFAF" d="M244.652,198.947c1.814,2.695,5.447,3.425,8.109,1.631c2.664-1.801,3.35-5.438,1.535-8.135
			c-1.82-2.691-5.449-3.422-8.113-1.629C243.52,192.61,242.834,196.254,244.652,198.947z"/>
		<path fill="#6B6B6B" d="M244.648,198.951c-1.816-2.701-1.129-6.341,1.535-8.137c2.664-1.793,6.293-1.063,8.113,1.629
			c1.814,2.697,1.129,6.338-1.535,8.135C250.1,202.372,246.467,201.643,244.648,198.951 M243.104,199.991
			c2.396,3.553,7.203,4.517,10.715,2.15c3.514-2.368,4.42-7.187,2.023-10.74c-2.396-3.556-7.205-4.519-10.715-2.152
			C241.615,191.618,240.707,196.436,243.104,199.991L243.104,199.991z"/>
	</g>
	<g>
		<path fill="#AFAFAF" d="M358.178,352.104c1.814,2.695,5.447,3.425,8.111,1.631c2.662-1.8,3.348-5.438,1.533-8.134
			c-1.82-2.692-5.449-3.423-8.113-1.629C357.047,345.768,356.359,349.411,358.178,352.104z"/>
		<path fill="#6B6B6B" d="M358.176,352.108c-1.818-2.7-1.129-6.341,1.533-8.136c2.664-1.794,6.293-1.063,8.113,1.629
			c1.814,2.696,1.129,6.338-1.533,8.134C363.625,355.529,359.992,354.8,358.176,352.108 M356.629,353.148
			c2.396,3.553,7.203,4.518,10.717,2.15c3.512-2.367,4.418-7.187,2.021-10.74c-2.396-3.555-7.203-4.518-10.715-2.152
			C355.141,344.775,354.232,349.593,356.629,353.148L356.629,353.148z"/>
	</g>
	<g>
		<path fill="#AFAFAF" d="M1327.663,407.352c1.814,2.695,5.447,3.424,8.11,1.631c2.663-1.801,3.349-5.438,1.533-8.135
			c-1.82-2.691-5.449-3.422-8.112-1.628C1326.531,401.016,1325.845,404.659,1327.663,407.352z"/>
		<path fill="#6B6B6B" d="M1327.659,407.356c-1.816-2.701-1.128-6.34,1.535-8.136c2.663-1.794,6.292-1.063,8.112,1.628
			c1.815,2.698,1.129,6.338-1.533,8.135C1333.11,410.776,1329.478,410.047,1327.659,407.356 M1326.114,408.395
			c2.396,3.553,7.203,4.518,10.716,2.15c3.512-2.367,4.419-7.186,2.022-10.74c-2.396-3.556-7.204-4.518-10.716-2.152
			C1324.626,400.022,1323.718,404.84,1326.114,408.395L1326.114,408.395z"/>
	</g>
	<g>
		<path fill="#AFAFAF" d="M48.738,506.801c1.814,2.695,5.447,3.424,8.109,1.631c2.664-1.801,3.348-5.438,1.533-8.135
			c-1.82-2.691-5.449-3.422-8.111-1.629C47.605,500.465,46.918,504.108,48.738,506.801z"/>
		<path fill="#6B6B6B" d="M48.734,506.805c-1.816-2.701-1.129-6.34,1.535-8.137c2.662-1.793,6.291-1.063,8.111,1.629
			c1.814,2.697,1.129,6.338-1.533,8.135C54.186,510.225,50.553,509.497,48.734,506.805 M47.188,507.844
			c2.398,3.553,7.205,4.518,10.717,2.15s4.42-7.186,2.023-10.738c-2.396-3.557-7.205-4.52-10.717-2.152
			S44.793,504.29,47.188,507.844L47.188,507.844z"/>
	</g>
	<g>
		<path fill="#AFAFAF" d="M-244.262,432.182c1.814,2.693,5.447,3.424,8.109,1.629c2.664-1.799,3.35-5.436,1.533-8.133
			c-1.818-2.693-5.447-3.424-8.111-1.629C-245.395,425.844-246.08,429.487-244.262,432.182z"/>
		<path fill="#6B6B6B" d="M-244.266,432.184c-1.816-2.699-1.129-6.34,1.535-8.135c2.664-1.795,6.293-1.064,8.111,1.629
			c1.816,2.697,1.131,6.338-1.533,8.133C-238.814,435.606-242.447,434.875-244.266,432.184 M-245.811,433.225
			c2.396,3.553,7.203,4.518,10.715,2.15c3.514-2.367,4.42-7.186,2.023-10.74c-2.396-3.555-7.205-4.518-10.715-2.152
			C-247.299,424.852-248.207,429.67-245.811,433.225L-245.811,433.225z"/>
	</g>
</g>
<g>
	<g>
		<path fill="#231F20" d="M223.848,355.257c8.252,8.331,8.262,21.684,0.031,29.823c-8.223,8.157-21.577,8.003-29.826-0.324
			c-8.238-8.322-8.249-21.682-0.02-29.829C202.256,346.791,215.614,346.93,223.848,355.257 M228.906,350.253
			c-11.026-11.138-28.929-11.323-39.939-0.435c-10.999,10.884-10.983,28.808,0.035,39.938c11.032,11.133,28.944,11.328,39.944,0.442
			C239.95,379.311,239.931,361.395,228.906,350.253L228.906,350.253z"/>
		<path fill="#8FC6A2" d="M228.252,350.89c-10.664-10.78-27.955-10.945-38.609-0.404c-10.664,10.555-10.658,27.854,0,38.627
			c10.676,10.771,27.972,10.966,38.631,0.428C238.945,378.966,238.928,361.676,228.252,350.89z"/>
	</g>
	<g>
		<path fill="#FFFFFF" d="M194.278,364.485c-1.049,0-1.898,0.846-1.898,1.894v9.174c0,1.042,0.85,1.9,1.898,1.9
			s1.895-0.858,1.895-1.9v-9.174C196.172,365.331,195.327,364.485,194.278,364.485z"/>
		<path fill="#FFFFFF" d="M224.042,364.485c-1.043,0-1.895,0.846-1.895,1.894v9.174c0,1.042,0.852,1.9,1.895,1.9
			c1.049,0,1.905-0.858,1.905-1.9v-9.174C225.947,365.331,225.09,364.485,224.042,364.485z"/>
		<path fill="#FFFFFF" d="M197.879,364.485c0,0.027,0,0.046,0,0.073v16.926c0,1.568,1.273,2.844,2.842,2.844h3.045v4.823
			c0,1.041,0.852,1.896,1.9,1.896s1.898-0.854,1.898-1.896v-4.823h3.238v4.823c0,1.041,0.851,1.896,1.895,1.896
			c1.048,0,1.899-0.854,1.899-1.896v-4.823h3.045c1.573,0,2.847-1.275,2.847-2.844v-16.926c0-0.027-0.006-0.046-0.011-0.073H197.879
			z"/>
		<path fill="#FFFFFF" d="M214.698,352.964l2.028-3.781l-0.411-0.226l-2.033,3.782c-1.533-0.782-3.264-1.223-5.105-1.223
			c-1.745,0-3.389,0.399-4.859,1.109l-1.975-3.669l-0.42,0.226l1.967,3.652c-3.51,1.889-5.902,5.575-5.936,9.832h22.449
			C220.381,358.507,218.081,354.88,214.698,352.964z M203.397,358.342c-0.584,0-1.07-0.487-1.07-1.067
			c0-0.592,0.486-1.076,1.07-1.076c0.588,0,1.07,0.484,1.07,1.076C204.467,357.854,203.985,358.342,203.397,358.342z
			 M214.779,358.342c-0.589,0-1.065-0.487-1.065-1.067c0-0.592,0.477-1.076,1.065-1.076c0.595,0,1.064,0.484,1.064,1.076
			C215.843,357.854,215.374,358.342,214.779,358.342z"/>
	</g>
</g>
<g>
	<g>
		<path fill="#231F20" d="M1437.082,471.456c8.252,8.332,8.262,21.683,0.031,29.826c-8.225,8.154-21.578,8-29.826-0.328
			c-8.238-8.32-8.25-21.677-0.02-29.824C1415.49,462.993,1428.848,463.13,1437.082,471.456 M1442.139,466.454
			c-11.025-11.139-28.928-11.322-39.939-0.438c-10.998,10.887-10.982,28.808,0.035,39.943c11.033,11.129,28.945,11.324,39.945,0.441
			C1453.184,495.51,1453.166,477.595,1442.139,466.454L1442.139,466.454z"/>
		<path fill="#8FC6A2" d="M1441.486,467.091c-10.664-10.781-27.955-10.947-38.609-0.406c-10.664,10.555-10.658,27.853,0,38.626
			c10.676,10.771,27.971,10.967,38.631,0.428C1452.178,495.165,1452.162,477.876,1441.486,467.091z"/>
	</g>
	<g>
		<path fill="#FFFFFF" d="M1427.025,471.815c1.35-1.66,2.258-3.973,2.01-6.271c-1.945,0.076-4.295,1.316-5.691,2.973
			c-1.244,1.479-2.338,3.826-2.049,6.09C1423.465,474.774,1425.678,473.483,1427.025,471.815z"/>
		<path fill="#FFFFFF" d="M1431.893,486.433c-0.018-1.576,0.379-2.881,0.93-3.959c1.188-2.299,3.115-3.445,3.242-3.527
			c-2.271-3.381-5.807-3.844-7.068-3.896c-3.008-0.314-5.867,1.809-7.398,1.809c-1.523,0-3.877-1.76-6.373-1.721
			c-3.279,0.051-6.301,1.941-7.998,4.936c-0.52,0.922-0.902,1.916-1.162,2.961c-1.438,5.708,0.809,12.724,3.613,16.855
			c1.627,2.389,3.559,5.07,6.1,4.973c2.449-0.102,3.371-1.613,6.328-1.613c2.961,0,3.797,1.613,6.385,1.564
			c2.629-0.053,4.303-2.432,5.908-4.828c1.863-2.775,2.635-5.457,2.674-5.592C1437.012,494.358,1431.943,492.381,1431.893,486.433z"
			/>
	</g>
</g>
<g>
	<g>
		<path fill="#231F20" d="M494.999,265.311c8.25,8.331,8.262,21.682,0.031,29.823c-8.225,8.154-21.578,8-29.828-0.325
			c-8.238-8.321-8.248-21.681-0.018-29.828C473.405,256.845,486.763,256.984,494.999,265.311 M500.056,260.306
			c-11.025-11.137-28.928-11.322-39.939-0.438c-11,10.888-10.982,28.811,0.035,39.942c11.031,11.13,28.945,11.327,39.943,0.442
			C511.101,289.363,511.081,271.449,500.056,260.306L500.056,260.306z"/>
		<path fill="#8FC6A2" d="M499.401,260.943c-10.664-10.779-27.953-10.944-38.607-0.403c-10.666,10.554-10.66,27.853,0,38.624
			c10.674,10.772,27.971,10.969,38.631,0.428C510.095,289.019,510.079,271.728,499.401,260.943z"/>
	</g>
	<g>
		<path fill="#FFFFFF" d="M493.495,273.402c-0.449-0.152-0.9-0.298-1.357-0.432c0.074-0.307,0.145-0.615,0.211-0.923
			c1.029-5.005,0.355-9.038-1.945-10.365c-2.205-1.271-5.818,0.053-9.461,3.228c-0.359,0.313-0.709,0.636-1.055,0.965
			c-0.229-0.223-0.465-0.432-0.695-0.646c-3.824-3.39-7.652-4.816-9.953-3.493c-2.201,1.28-2.857,5.067-1.932,9.812
			c0.096,0.467,0.199,0.935,0.316,1.403c-0.541,0.148-1.066,0.314-1.568,0.489c-4.479,1.564-7.338,4.009-7.338,6.55
			c0,2.62,3.066,5.249,7.732,6.845c0.379,0.126,0.762,0.248,1.146,0.356c-0.127,0.502-0.234,0.999-0.33,1.509
			c-0.885,4.664-0.197,8.363,2.002,9.631c2.275,1.311,6.084-0.04,9.799-3.285c0.291-0.252,0.586-0.522,0.877-0.812
			c0.375,0.356,0.758,0.704,1.148,1.043c3.596,3.097,7.146,4.344,9.342,3.069c2.268-1.307,3.006-5.281,2.047-10.127
			c-0.072-0.361-0.158-0.741-0.25-1.124c0.268-0.08,0.529-0.166,0.783-0.242c4.848-1.611,8.002-4.205,8.002-6.863
			C501.017,277.443,498.067,274.977,493.495,273.402L493.495,273.402z"/>
		<path fill="#8FC6A2" d="M492.444,285.13c-0.227,0.079-0.467,0.156-0.709,0.222c-0.533-1.69-1.258-3.499-2.141-5.357
			c0.844-1.817,1.537-3.597,2.059-5.28c0.432,0.129,0.852,0.26,1.256,0.396c3.914,1.353,6.301,3.341,6.301,4.879
			C499.21,281.621,496.636,283.747,492.444,285.13L492.444,285.13z M490.706,288.574c0.426,2.138,0.486,4.074,0.209,5.585
			c-0.25,1.357-0.762,2.267-1.387,2.624c-1.33,0.773-4.182-0.23-7.256-2.873c-0.352-0.306-0.713-0.632-1.068-0.972
			c1.193-1.308,2.387-2.821,3.547-4.501c2.045-0.181,3.977-0.479,5.732-0.884C490.563,287.9,490.644,288.244,490.706,288.574
			L490.706,288.574z M473.142,296.654c-1.303,0.461-2.342,0.469-2.967,0.111c-1.338-0.774-1.887-3.743-1.139-7.725
			c0.096-0.474,0.197-0.943,0.314-1.406c1.732,0.378,3.65,0.656,5.697,0.828c1.168,1.64,2.398,3.157,3.631,4.486
			c-0.26,0.249-0.529,0.495-0.803,0.738C476.233,295.12,474.589,296.138,473.142,296.654L473.142,296.654z M467.04,285.124
			c-2.068-0.708-3.768-1.622-4.938-2.622c-1.045-0.899-1.574-1.793-1.574-2.513c0-1.544,2.295-3.509,6.123-4.84
			c0.48-0.166,0.963-0.326,1.457-0.461c0.529,1.722,1.225,3.522,2.059,5.341c-0.848,1.849-1.545,3.678-2.084,5.421
			C467.729,285.348,467.386,285.238,467.04,285.124z M469.081,271.2c-0.793-4.062-0.266-7.131,1.064-7.899
			c1.412-0.817,4.547,0.35,7.846,3.285c0.211,0.183,0.418,0.382,0.635,0.58c-1.232,1.32-2.447,2.821-3.607,4.456
			c-1.988,0.187-3.896,0.484-5.646,0.879C469.265,272.072,469.171,271.638,469.081,271.2L469.081,271.2z M487.325,275.705
			c-0.408-0.716-0.836-1.42-1.277-2.113c1.344,0.17,2.637,0.396,3.855,0.671c-0.367,1.173-0.818,2.391-1.357,3.647
			C488.155,277.167,487.749,276.427,487.325,275.705z M479.888,268.455c0.834,0.906,1.668,1.916,2.49,3.011
			c-1.66-0.084-3.336-0.084-5-0.004C478.202,270.378,479.042,269.371,479.888,268.455L479.888,268.455z M472.401,275.718
			c-0.418,0.721-0.813,1.448-1.195,2.191c-0.527-1.251-0.973-2.48-1.346-3.663c1.211-0.271,2.498-0.495,3.834-0.662
			C473.247,274.285,472.817,275,472.401,275.718z M473.739,286.513c-1.387-0.148-2.691-0.363-3.9-0.626
			c0.375-1.206,0.834-2.456,1.369-3.732c0.381,0.742,0.781,1.47,1.201,2.187C472.829,285.078,473.278,285.802,473.739,286.513z
			 M479.938,291.647c-0.855-0.926-1.709-1.952-2.545-3.046c0.811,0.03,1.639,0.049,2.473,0.049c0.861,0,1.719-0.026,2.559-0.059
			C481.597,289.708,480.769,290.732,479.938,291.647z M488.562,282.092c0.568,1.288,1.047,2.534,1.424,3.722
			c-1.23,0.277-2.553,0.504-3.943,0.67c0.447-0.708,0.881-1.426,1.301-2.148C487.763,283.593,488.171,282.849,488.562,282.092
			L488.562,282.092z M485.771,283.431c-0.639,1.109-1.318,2.2-2.027,3.27c-1.258,0.093-2.553,0.141-3.877,0.141
			c-1.314,0-2.596-0.042-3.832-0.123c-0.721-1.068-1.414-2.164-2.063-3.28c-0.645-1.111-1.244-2.248-1.807-3.413
			c0.555-1.152,1.154-2.293,1.801-3.404l0,0c0.643-1.113,1.33-2.211,2.051-3.265c1.256-0.098,2.549-0.146,3.85-0.146
			c1.314,0,2.604,0.048,3.861,0.146c0.719,1.054,1.396,2.146,2.037,3.251c0.646,1.115,1.254,2.245,1.824,3.395
			C487.026,281.167,486.419,282.31,485.771,283.431L485.771,283.431z M489.499,263.252c1.418,0.816,1.969,4.108,1.078,8.431
			c-0.057,0.277-0.121,0.558-0.189,0.838c-1.754-0.405-3.664-0.704-5.66-0.895c-1.158-1.652-2.365-3.161-3.576-4.461
			c0.326-0.302,0.643-0.604,0.979-0.891C485.253,263.552,488.171,262.483,489.499,263.252z"/>
		<path fill="#FFFFFF" d="M479.866,276.207c2.09,0,3.779,1.691,3.779,3.782c0,2.085-1.689,3.774-3.779,3.774
			c-2.08,0-3.775-1.689-3.775-3.774C476.091,277.898,477.786,276.207,479.866,276.207"/>
	</g>
</g>
<g>
	<g>
		<path fill="#231F20" d="M1051.523,287.333c8.252,8.33,8.262,21.685,0.031,29.826c-8.224,8.154-21.578,7.998-29.826-0.328
			c-8.238-8.321-8.25-21.68-0.02-29.826C1029.931,278.868,1043.288,279.005,1051.523,287.333 M1056.58,282.33
			c-11.026-11.139-28.929-11.321-39.939-0.438c-10.998,10.889-10.982,28.81,0.035,39.943c11.032,11.13,28.945,11.325,39.945,0.44
			C1067.625,311.387,1067.606,293.469,1056.58,282.33L1056.58,282.33z"/>
		<path fill="#8FC6A2" d="M1055.928,282.967c-10.665-10.781-27.955-10.947-38.609-0.406c-10.665,10.555-10.659,27.854,0,38.627
			c10.676,10.772,27.971,10.967,38.63,0.428C1066.62,311.042,1066.603,293.751,1055.928,282.967z"/>
	</g>
	<g>
		<path fill="#FFFFFF" d="M1034.274,282.98c0.97-0.558,2.23-0.558,3.196,0c4.865,2.747,9.731,5.492,14.596,8.243
			c0.915,0.516,1.527,1.533,1.518,2.587v16.538c0.005,1.1-0.667,2.142-1.63,2.646c-4.852,2.73-9.696,5.468-14.548,8.205
			c-0.986,0.563-2.271,0.519-3.229-0.091c-1.453-0.845-2.909-1.683-4.364-2.523c-0.295-0.179-0.629-0.317-0.84-0.606
			c0.185-0.248,0.516-0.28,0.786-0.392c0.607-0.191,1.164-0.503,1.723-0.802c0.14-0.096,0.311-0.062,0.447,0.027
			c1.242,0.711,2.475,1.446,3.722,2.15c0.265,0.156,0.538-0.049,0.766-0.176c4.757-2.69,9.52-5.367,14.276-8.055
			c0.178-0.088,0.275-0.277,0.26-0.471c0.006-5.455,0.003-10.911,0.003-16.367c0.019-0.218-0.107-0.42-0.306-0.51
			c-4.832-2.72-9.664-5.445-14.494-8.17c-0.168-0.116-0.395-0.116-0.565,0c-4.833,2.725-9.663,5.452-14.491,8.173
			c-0.199,0.089-0.332,0.289-0.308,0.507c0,5.456,0,10.912,0,16.37c-0.019,0.192,0.087,0.374,0.262,0.459
			c1.29,0.731,2.579,1.456,3.869,2.187c0.727,0.39,1.621,0.621,2.421,0.321c0.707-0.253,1.202-0.974,1.188-1.723
			c0.008-5.423-0.003-10.849,0.008-16.273c-0.02-0.24,0.208-0.438,0.44-0.413c0.622-0.006,1.243-0.012,1.86,0
			c0.257-0.006,0.437,0.25,0.406,0.493c-0.005,5.459,0.006,10.918-0.005,16.375c0,1.455-0.597,3.038-1.943,3.749
			c-1.654,0.86-3.705,0.676-5.344-0.147c-1.417-0.705-2.771-1.537-4.162-2.298c-0.969-0.503-1.638-1.547-1.63-2.646V293.81
			c-0.011-1.075,0.627-2.112,1.568-2.621C1024.58,288.456,1029.429,285.714,1034.274,282.98z"/>
		<path fill="#FFFFFF" d="M1038.504,294.438c2.113-0.139,4.38-0.082,6.282,0.958c1.472,0.799,2.29,2.474,2.316,4.112
			c-0.042,0.217-0.272,0.337-0.483,0.324c-0.613,0-1.229,0.008-1.841-0.001c-0.261,0.007-0.409-0.231-0.444-0.461
			c-0.174-0.783-0.602-1.56-1.34-1.938c-1.133-0.567-2.443-0.537-3.677-0.527c-0.902,0.05-1.868,0.126-2.636,0.655
			c-0.583,0.402-0.76,1.214-0.551,1.863c0.195,0.47,0.735,0.621,1.18,0.762c2.547,0.668,5.246,0.596,7.748,1.473
			c1.033,0.36,2.044,1.055,2.4,2.137c0.462,1.457,0.259,3.189-0.772,4.357c-0.838,0.957-2.059,1.481-3.275,1.765
			c-1.619,0.358-3.3,0.369-4.942,0.209c-1.549-0.176-3.157-0.581-4.35-1.639c-1.02-0.884-1.521-2.265-1.469-3.595
			c0.01-0.229,0.234-0.387,0.449-0.367c0.617-0.002,1.235-0.005,1.854,0c0.246-0.02,0.431,0.195,0.441,0.432
			c0.115,0.743,0.396,1.531,1.049,1.969c1.253,0.813,2.828,0.754,4.266,0.781c1.192-0.055,2.528-0.069,3.502-0.858
			c0.511-0.45,0.666-1.2,0.524-1.846c-0.15-0.547-0.721-0.801-1.21-0.967c-2.514-0.797-5.246-0.508-7.736-1.405
			c-1.013-0.361-1.992-1.035-2.38-2.072c-0.543-1.472-0.294-3.293,0.849-4.418C1035.368,295.02,1036.976,294.589,1038.504,294.438
			L1038.504,294.438z"/>
	</g>
</g>
<g>
	<g>
		<path fill="#231F20" d="M820.565,410.418c8.252,8.332,8.262,21.684,0.031,29.826c-8.225,8.154-21.578,8-29.826-0.328
			c-8.238-8.32-8.25-21.682-0.02-29.826C798.972,401.951,812.329,402.092,820.565,410.418 M825.622,405.416
			c-11.027-11.139-28.93-11.326-39.939-0.438c-10.998,10.887-10.982,28.809,0.035,39.941c11.031,11.131,28.945,11.326,39.945,0.443
			C836.667,434.471,836.647,416.557,825.622,405.416L825.622,405.416z"/>
		<path fill="#8FC6A2" d="M824.97,406.051c-10.666-10.779-27.955-10.945-38.609-0.404c-10.666,10.555-10.66,27.854,0,38.627
			c10.676,10.771,27.971,10.965,38.629,0.428C835.661,434.127,835.646,416.836,824.97,406.051z"/>
	</g>
	<g>
		<path fill="#FFFFFF" d="M806.083,407.727l-18.99,6.686l3.006,24.877l16.008,8.797l16.088-8.916l3-24.879L806.083,407.727z"/>
		<path fill="#8FC6A2" d="M823.3,415.727l-17.262-5.881v36.135l14.469-8.002L823.3,415.727L823.3,415.727z"/>
		<path fill="#8FC6A2" d="M789.224,415.836l2.576,22.248l14.238,7.896v-36.137L789.224,415.836L789.224,415.836z"/>
		<path fill="#FFFFFF" d="M810.794,429.08l-4.756,2.223h-5.004l-2.355,5.893l-4.381,0.078l11.74-26.119L810.794,429.08
			L810.794,429.08z M810.331,427.963l-4.26-8.434l-3.498,8.289h3.465L810.331,427.963L810.331,427.963z"/>
		<path fill="#FFFFFF" d="M806.038,411.154l0.033,8.375l3.963,8.291h-3.986l-0.01,3.475l5.512,0.008l2.582,5.971l4.188,0.08
			L806.038,411.154z"/>
	</g>
</g>
<g>
	<g>
		<path fill="#C4C4C4" d="M1065.746,603.034c2.248-2.229,2.245-5.88-0.008-8.159c-2.252-2.273-5.908-2.314-8.155-0.09
			c-2.25,2.227-2.247,5.879,0.005,8.156C1059.844,605.22,1063.496,605.257,1065.746,603.034z"/>
		<path fill="#231F20" d="M1065.738,594.875c2.253,2.279,2.256,5.93,0.008,8.159c-2.25,2.224-5.902,2.187-8.158-0.093
			c-2.252-2.277-2.255-5.93-0.005-8.156C1059.83,592.56,1063.486,592.601,1065.738,594.875 M1068.007,592.628
			c-3.505-3.537-9.198-3.604-12.7-0.14c-3.494,3.463-3.492,9.165,0.014,12.7c3.504,3.539,9.201,3.604,12.7,0.14
			C1071.518,601.872,1071.512,596.176,1068.007,592.628L1068.007,592.628z"/>
	</g>
	<g>
		<path fill="#231F20" d="M1079.752,584.16c8.252,8.33,8.264,21.684,0.033,29.825c-8.225,8.155-21.58,7.999-29.828-0.327
			c-8.238-8.318-8.248-21.68-0.018-29.827C1058.16,575.695,1071.518,575.833,1079.752,584.16 M1084.811,579.157
			c-11.027-11.14-28.93-11.322-39.939-0.438c-11,10.889-10.982,28.81,0.035,39.944c11.031,11.13,28.944,11.324,39.944,0.441
			C1095.854,608.214,1095.835,590.296,1084.811,579.157L1084.811,579.157z"/>
		<path fill="#8FC6A2" d="M1084.157,579.794c-10.665-10.781-27.954-10.947-38.608-0.403c-10.665,10.551-10.66,27.851,0,38.624
			c10.674,10.772,27.971,10.967,38.629,0.427C1094.848,607.869,1094.832,590.58,1084.157,579.794z"/>
	</g>
	<g>
		<path fill="#FCFCFC" d="M1044.513,610.22h15.929c0,0-3.045-13.893,7.035-19.516c2.199-1.07,9.193-5.063,20.648,3.408
			c0.361-0.303,0.703-0.545,0.703-0.545s-10.482-10.467-22.158-9.295c-5.865,0.521-13.084,5.867-17.319,12.921
			C1045.115,604.253,1044.513,610.22,1044.513,610.22z"/>
		<path fill="#FCFCFC" d="M1044.513,610.22h15.929c0,0-3.045-13.893,7.035-19.516c2.199-1.07,9.193-5.063,20.648,3.408
			c0.361-0.303,0.703-0.545,0.703-0.545s-10.482-10.467-22.158-9.295c-5.865,0.521-13.084,5.867-17.319,12.921
			C1045.115,604.253,1044.513,610.22,1044.513,610.22z"/>
		<path fill="#FCFCFC" d="M1044.513,610.22h15.929c0,0-3.045-13.893,7.035-19.516c2.199-1.07,9.193-5.063,20.648,3.408
			c0.361-0.303,0.703-0.545,0.703-0.545s-10.482-10.467-22.158-9.295c-5.887,0.521-13.105,5.867-17.338,12.921
			C1045.096,604.253,1044.513,610.22,1044.513,610.22z M1077.699,585.402l0.082-1.355c-0.18-0.102-0.688-0.338-1.956-0.703
			l-0.081,1.33C1076.408,584.896,1077.056,585.139,1077.699,585.402z"/>
		<path fill="#FCFCFC" d="M1075.785,589.677l-0.08,1.268c0.665,0.021,1.329,0.1,1.994,0.241l0.082-1.25
			C1077.093,589.794,1076.43,589.714,1075.785,589.677z M1068.322,583.383h0.203l-0.403-1.229c-0.622,0-1.271,0.039-1.935,0.123
			l0.383,1.187C1067.156,583.405,1067.74,583.383,1068.322,583.383z M1069.291,590.806l0.467,1.388
			c0.582-0.283,1.168-0.521,1.754-0.705l-0.443-1.329C1070.381,590.358,1069.798,590.582,1069.291,590.806z M1060.139,585.5
			l-0.908-1.388c-0.502,0.262-1.027,0.54-1.572,0.864l0.926,1.409C1059.111,586.064,1059.613,585.762,1060.139,585.5z
			 M1064.271,594.576l0.969,1.45c0.342-0.505,0.743-0.968,1.189-1.433l-0.908-1.371
			C1065.059,593.644,1064.636,594.113,1064.271,594.576z M1061.348,601.064l1.633,1.293c0.082-0.784,0.225-1.574,0.426-2.357
			l-1.454-1.15C1061.69,599.595,1061.511,600.339,1061.348,601.064z M1052.516,591.489l-1.432-1.249
			c-0.524,0.504-1.027,1.005-1.491,1.511l1.552,1.33C1051.568,592.541,1052.033,591.994,1052.516,591.489z M1046.426,600.5
			l-2.316-0.846c-0.384,0.869-0.809,1.877-1.01,2.419l2.32,0.849C1045.682,602.235,1046.104,601.246,1046.426,600.5z
			 M1061.045,606.188c0.043,1.068,0.139,1.935,0.242,2.541l2.42,0.863c-0.182-0.783-0.363-1.671-0.484-2.62L1061.045,606.188z"/>
	</g>
</g>
</svg>
