<?xml version="1.0" encoding="utf-8"?>
<!-- Generator: Adobe Illustrator 15.0.0, SVG Export Plug-In . SVG Version: 6.00 Build 0)  -->
<!DOCTYPE svg PUBLIC "-//W3C//DTD SVG 1.1//EN" "http://www.w3.org/Graphics/SVG/1.1/DTD/svg11.dtd">
<svg version="1.1" xmlns="http://www.w3.org/2000/svg" xmlns:xlink="http://www.w3.org/1999/xlink" x="0px" y="0px" width="1122px"
	 height="1122px" viewBox="0 0 1122 1122" enable-background="new 0 0 1122 1122" xml:space="preserve">
<g id="BG">
</g>
<g id="Object">
	<g>
		<path fill="#FFFFFF" d="M209.14,571.154l163.157-60.479l-32.51-27.928l24.901-33.218l-32.808-2.487l1.067-51.007
			c0,0-52.086,41.907-72.791,77.131C239.453,508.391,213.555,546.417,209.14,571.154z"/>
		<path fill="#FFFFFF" d="M560.454,377.848c0,0,130.001-70.472,248.173-83.232l6.472-2.317l6.807,25.706l-0.288,24.225l-6.029,2.611
			l-36.321,35.104l42.639,11.562c0,0,2.585-0.476,9.685,32.038s5.244,37.417,5.244,37.417l-251.183-66.712l-23.985-7.451
			l-3.717-6.446L560.454,377.848z"/>
		<path fill="#FFFFFF" d="M818.701,574.649c4.202-0.355,128.855,54.901,128.855,54.901l-127.265,57.444l9.036,17.02L535.321,806.061
			l-59.781,22.858l55.707-78.032l71.781-87.454l-102.322,58.472l-259.555,8.199l-43.328-65.972l-22.24,1.062l-4.844-25.408
			l12.119-0.967c0,0,225.281-78.688,225.604-80.011s61.924-198.743,61.924-198.743l19.086,50.246l47.445,116.914l68.746-7.179
			l129.539-9.487l10.67,29.982l-14.604,4.105l31.252,11.591l6.91-2.037l10.195,35.561l30.491-17.636L818.701,574.649z"/>
		<g>
			<path fill="#8FC6A2" d="M470.565,357.973c-3.519,1.173-58.648,193.538-62.167,201.749l-236.937,82.107l2.346,23.459l25.805-1.173
				c0,0,37.534,66.858,41.053,66.858s246.321-9.384,251.013-9.384s12.902-1.173,16.421-2.346s96.182-55.129,96.182-55.129
				L716.886,543.3l28.151-1.173l-9.384-31.67l-197.057,14.075L470.565,357.973z"/>
			<path fill="#CC6E76" d="M209.14,571.154l163.157-60.479l-32.51-27.928l24.901-33.218l-32.808-2.487l1.067-51.007
				c0,0-52.086,41.907-72.791,77.131C239.453,508.391,213.555,546.417,209.14,571.154z"/>
			<path fill="#CC6E76" d="M560.454,377.848c0,0,130.001-70.472,248.173-83.232l6.472-2.317l6.807,25.706l-0.288,24.225
				l-6.029,2.611l-36.321,35.104l42.639,11.562c0,0,2.585-0.476,9.685,32.038s5.244,37.417,5.244,37.417l-251.183-66.712
				l-23.985-7.451l-3.717-6.446L560.454,377.848z"/>
			<path fill="#CC6E76" d="M716.886,543.3c0,0-198.229,209.959-241.628,285.028L833.009,706.34l-11.729-18.767l130.198-55.129
				l-140.755-62.167l-29.324,19.94l-11.729-35.188L716.886,543.3z"/>
			<path fill="#61AB7A" d="M175.897,640.693c3.137-1.046,232.501-80.972,232.501-80.972l-15.026,50.651L175.897,640.693z"/>
			<polygon fill="#61AB7A" points="538.597,524.532 557.523,574.823 727.948,514.182 			"/>
			<path fill="#61AB7A" d="M209.355,682.515l272.888-13.592l13.592-25.093l20.911,19.865l153.695-67.961l25.094-31.366
				l-184.017,75.279l-14.638-37.64c0,0-5.228,1.045-7.319,4.182c-2.091,3.137-6.273,38.686-6.273,38.686l-287.526,20.911
				L209.355,682.515z"/>
		</g>
		<g>
			<g>
				<g>
					<path fill="#59595B" d="M717.687,540.395c-88.346,88.25-169.91,183.376-241.981,285.392c-0.725,1.026,1.119,2.133,1.862,1.134
						c74.402-100.052,155.155-195.117,243.346-283.3C722.847,541.686,719.517,538.565,717.687,540.395z"/>
					<path fill="#59595B" d="M946.716,629.706c-73.174,30.462-181.023,75.878-254.145,106.467
						c-68.85,28.802-139.589,55.202-207.046,87.299c4.624-4.959,9.246-9.917,13.857-14.88
						c96.558-84.324,198.106-162.083,306.007-231.58c1.979-1.275-0.121-4.334-1.943-3.182c-7.397,4.682-14.764,9.419-22.113,14.186
						c-3.053-11.457-7.356-22.9-11.903-33.815c-0.461-1.107-2.354-1.038-2.022,0.356c0.044,0.185,0.095,0.371,0.139,0.556
						c-0.562-0.937-1.981-1.565-3.019-0.791c-0.188,0.14-0.371,0.287-0.559,0.426c-0.009-0.003-0.014-0.009-0.022-0.012
						c-15.021-5.129-30.388-9.786-45.835-13.437c-1.355-0.321-1.663,1.362-0.457,1.84c13.896,5.506,28.237,10.236,42.598,14.448
						c-52.159,39.351-101.515,83.283-148.705,128.363c-42.955,41.036-85.585,83.614-123.738,129.362
						c-4.717,4.373-9.435,8.746-14.107,13.165c-0.284,0.268-0.314,0.586-0.218,0.876c-0.736,0.891,0.616,2.367,1.84,1.94
						c0.314-0.11,0.627-0.225,0.941-0.335c0.521,0.572,1.458,0.881,2.007,0.294c0.468-0.501,0.933-1.003,1.401-1.504
						c73.181-25.806,144.429-58.678,216.091-88.349c35.986-14.899,80.314-33.482,124.779-52.144c0.737,2.377,1.675,4.712,2.58,6.998
						c1.467,3.702,2.916,7.825,5.213,11.091c1.565,2.225,5.789,1.738,4.948-1.551c-0.994-3.885-3.224-7.604-5.115-11.122
						c-1.253-2.327-2.523-4.707-3.972-6.95c44.813-18.809,89.539-37.597,125.78-52.675
						C953.647,633.521,950.041,628.321,946.716,629.706z M616.473,687.518c48.32-45.914,99.227-88.304,150.749-130.502
						c0.382-0.312,0.521-0.673,0.541-1.034c2.751,11.417,6.031,23.073,10.339,33.974c0.018,0.046,0.054,0.076,0.075,0.12
						c-89.934,58.529-176.149,123.418-256.532,194.593C552.492,751.574,583.573,718.779,616.473,687.518z"/>
					<path fill="#59595B" d="M948.092,627.753c-43.9-19.506-87.971-39.647-132.93-56.593c-1.084-0.409-1.726,1.172-0.7,1.683
						c43.229,21.526,88.17,40.235,132.552,59.247C950.026,633.38,950.839,628.974,948.092,627.753z"/>
					<path fill="#59595B" d="M830.43,701.12c-119.629,40.684-217.999,74.845-337.239,116.667c-1.137,0.398-0.023,1.934,0.984,1.609
						c120.573-38.687,218.911-73.779,339.111-113.602C836.547,704.714,833.398,700.11,830.43,701.12z"/>
				</g>
				<g>
					<path fill="#59595B" d="M824.427,342.451c0.658-16.746-3.376-34.014-8.872-49.714c-0.085-0.242-0.264-0.379-0.456-0.439
						c0.174-0.869-0.55-1.985-1.632-1.857c-19.34,2.281-76.681,16.082-95.396,21.317c-18.227,5.099-36.238,10.938-53.989,17.505
						c-36.228,13.402-71.265,29.741-104.797,48.912c-0.951,0.543-0.035,2.196,0.925,1.665
						c33.994-18.812,69.413-35.067,105.97-48.238c17.743-6.393,35.738-12.103,53.926-17.095c18.6-5.105,75.531-16.322,94.122-21.309
						c0.089-0.023,0.143-0.073,0.218-0.107c4.971,16.211,6.366,32.307,7.172,49.137C821.705,344.039,824.348,344.46,824.427,342.451
						z"/>
					<path fill="#59595B" d="M588.053,386.319c35.23,1.664,70.554,2.324,105.779,3.526c43.121,1.473,86.241,3.058,129.366,4.401
						c1.717,0.054,1.474-2.642-0.086-2.698c-43.116-1.552-86.242-2.862-129.363-4.285c-43.077-1.422-86.248-3.703-129.351-3.901
						c-0.271-0.001-0.463,0.101-0.585,0.255c-0.46-0.078-0.919-0.16-1.378-0.238c-0.527-0.089-0.757,0.244-0.77,0.647
						C570.479,384.199,579.277,385.096,588.053,386.319z"/>
					<path fill="#59595B" d="M820.039,341.003c-43.724,6.392-87.44,12.83-131.157,19.269
						c-43.647,6.429-87.505,12.283-130.933,20.079c-1.07,0.192-0.511,1.838,0.476,1.724c43.891-5.091,87.632-12.148,131.34-18.604
						c41.943-6.195,83.886-12.394,125.823-18.63c-12.183,9.897-23.931,21.066-35.019,32.006c-1.01,0.996,0.56,2.778,1.68,1.821
						c12.599-10.767,25.515-22.261,36.932-34.359c0.567-0.084,1.134-0.167,1.7-0.252
						C822.754,343.777,821.812,340.743,820.039,341.003z"/>
					<path fill="#59595B" d="M777.892,377.848c-72.501,1.052-145.029,4.447-217.492,6.956c-1.837,0.064-1.581,2.957,0.093,2.898
						c72.464-2.509,145.054-4.14,217.454-8.105C779.045,379.537,778.913,377.833,777.892,377.848z"/>
					<path fill="#59595B" d="M822.137,390.999c-14.506-4.15-29.518-8.946-44.427-11.316c-0.891-0.142-0.791,1.203-0.131,1.46
						c14.051,5.469,29.34,8.953,43.934,12.723C823.427,394.359,823.853,391.489,822.137,390.999z"/>
					<path fill="#59595B" d="M836.834,460.96l-139.035-38.152c-22.716-6.233-45.45-12.399-68.177-18.593
						c-22.722-6.192-45.459-13.124-68.489-18.067c-0.896-0.192-0.867,1.289-0.137,1.533c22.299,7.457,45.357,13.065,68.024,19.301
						c23.168,6.373,46.33,12.772,69.51,19.105l137.705,37.621C838.068,464.209,838.479,461.411,836.834,460.96z"/>
					<path fill="#59595B" d="M838.965,459.469c-1.541-21.563-6.375-42.82-13.65-63.142c-0.249-0.695-1.294-0.563-1.076,0.222
						c5.714,20.583,9.305,41.434,11.496,62.664C835.944,461.247,839.131,461.794,838.965,459.469z"/>
				</g>
				<g>
					<path fill="#59595B" d="M366.341,449.779c-10.424-1.59-21.117-3.06-31.645-3.713c-0.889-0.055-0.721,1.186,0.016,1.344
						c8.852,1.899,17.979,3.238,27.006,4.395c-53.136,31.851-103.27,69.235-147.786,112.388c-1.277,0.896-2.547,1.803-3.82,2.705
						c0.753-1.733,1.513-3.464,2.272-5.193c34.679-43.388,75.372-81.583,121.191-113.095c1.714-1.179-0.452-3.656-2.008-2.581
						c-43.822,30.27-82.966,66.729-115.964,108.438c12.773-28.009,27.808-54.851,45.843-79.921
						c20.575-28.599,44.513-53.717,70.358-77.466c-1.208,15.226-1.56,30.646-1.828,45.912c-0.031,1.792,3.089,2.554,3.152,0.628
						c0.513-15.567,0.937-31.293,0.483-46.864c-0.011-0.374-0.314-0.621-0.666-0.721c0.898-0.823,1.794-1.648,2.697-2.468
						c1.071-0.972-0.833-2.728-1.871-1.887c-54.249,43.937-97.746,105.089-123.961,169.969c-0.918,3.389-1.939,6.759-2.992,10.12
						c0.771-0.211,1.544-0.416,2.32-0.615c1.385-1.265,2.771-2.528,4.159-3.79c20.424-13.047,40.403-26.834,60.552-40.289
						c21.96-14.665,44.623-28.721,65.936-44.328c9.28,10.035,19.912,19.426,30.316,28.239c1.47,1.246,3.297-0.667,1.862-2.046
						c-9.74-9.359-20.137-18.928-30.956-27.077c0.183-0.136,0.371-0.266,0.554-0.401c0.597-0.441,0.589-1.045,0.301-1.524
						c7.912-8.497,15.658-17.3,22.882-26.386c0.092-0.055,0.184-0.112,0.276-0.168c0.412-0.247,0.574-0.574,0.596-0.913
						c0.041-0.051,0.082-0.101,0.122-0.151c0.087,0.011,0.175,0.022,0.262,0.033C367.862,452.581,368.122,450.051,366.341,449.779z
						 M337.777,480.66c-0.023,0.027-0.024,0.056-0.044,0.084c-22.386,13.785-43.867,29.356-65.643,44.068
						c-15.08,10.188-30.295,20.219-45.328,30.5c41.434-36.463,85.406-69.658,132.591-98.471
						C351.886,464.518,344.687,472.542,337.777,480.66z"/>
					<path fill="#59595B" d="M371.461,509.461c-27.66,11.53-55.634,22.306-83.825,32.467c-26.411,9.521-54.033,16.931-80.071,27.473
						c-0.242,0.79-0.488,1.578-0.735,2.366c3.974-1.088,8.024-1.994,12.053-2.856c23.776-6.341,47.23-15.573,70.159-23.787
						c28.22-10.109,56.166-20.937,83.952-32.179C375.378,511.98,373.587,508.574,371.461,509.461z"/>
				</g>
				<path fill="#59595B" d="M738.82,514.729c0.553-0.387,1.121-0.752,1.636-1.198c0.55-0.402,1.102-0.653,1.651-0.843
					c0.115-2.601,0.188-5.2,0.154-7.793c-0.01-0.714-1.254-1.487-1.543-0.536c-1.087,3.568-1.996,7.197-2.784,10.864
					C738.232,515.063,738.522,514.889,738.82,514.729z"/>
				<path fill="#59595B" d="M175.038,649.03c-0.02-0.028-0.041-0.054-0.06-0.082c-1.077-1.565-1.289-3.167-0.954-4.606
					c-0.427-1.605-0.972-3.166-1.793-4.604c-0.346-0.606-1.319-0.808-1.492,0.048c-0.719,3.563,0.232,7.388,0.755,10.948
					c0.611,4.165,0.982,8.442,2.085,12.506c0.63,2.322,4.385,2.76,4.139-0.134c-0.358-4.199-1.502-8.372-2.365-12.497
					C175.243,650.086,175.14,649.56,175.038,649.03z"/>
				<g>
					<path fill="#59595B" d="M495.301,596.002c-33.437,4.238-66.894,8.557-100.345,12.979c0.047-0.086,0.119-0.138,0.157-0.236
						c7.752-20.237,12.976-41.72,19.232-62.468c6.297-20.88,12.576-41.766,18.851-62.652
						c12.554-41.786,24.721-83.704,37.418-125.442c0.272-0.894-1.2-1.676-1.497-0.726c-13.156,42.184-26.857,84.215-40.162,126.356
						c-6.553,20.755-13.099,41.512-19.63,62.274c-1.403,4.46-2.866,8.921-4.34,13.385c-0.407-0.167-0.857-0.235-1.34-0.075
						c-75.225,24.931-149.757,52.494-224.34,79.289c-0.505,0.182-0.536,0.66-0.33,1.029c-1.084,0.169-2.171,0.329-3.255,0.498
						c-1.044,0.162-0.708,1.669,0.251,1.559c106.75-12.381,213.486-27.188,319.841-42.584
						C497.961,598.878,497.25,595.755,495.301,596.002z M403.542,563.847c-4.75,14.331-9.527,28.72-12.991,43.314
						c-0.222,0.938,0.308,1.753,1.077,2.26c-69.607,9.221-139.188,18.947-208.507,29.662
						C256.673,614.418,330.622,590.313,403.542,563.847z"/>
					<path fill="#59595B" d="M558.17,574.372c-12.829-35.238-27.708-69.85-41.605-104.682
						c-13.816-34.628-26.288-70.982-43.357-104.148c-0.346-0.672-1.802-0.74-1.521,0.248c10.032,35.197,25.6,69.514,38.961,103.566
						c13.944,35.536,27.099,71.569,42.157,106.646C554.229,579.32,559.537,578.127,558.17,574.372z"/>
					<path fill="#59595B" d="M497.313,593.547c-19.118-77.137-26.458-154.114-26.928-233.482c-0.005-0.882-1.483-1.374-1.555-0.339
						c-5.413,77.804,4.257,158.543,23.537,233.98C493.095,596.554,498.118,596.796,497.313,593.547z"/>
					<path fill="#59595B" d="M741.894,505.878c-3.13,1.109-6.25,2.247-9.377,3.364c-65.849,4.336-132.072,8.536-197.624,15.94
						c-1.511,0.17-1.001,2.268,0.357,2.217c60.328-2.273,120.811-7.257,181.041-12.336c-33.844,12.226-67.576,24.78-101.373,37.122
						c-20.515,7.491-40.998,15.066-61.47,22.671c-20.218,7.511-42.159,13.753-61.197,23.954c-1.122,0.601,0.128,2.055,1.076,1.853
						c21.099-4.517,41.88-13.761,62.185-21.01c21.221-7.576,42.427-15.189,63.604-22.883c40.007-14.535,80.14-28.771,120.026-43.634
						c0.421-0.035,0.842-0.071,1.263-0.106c0.797-0.067,1.279-0.441,1.538-0.929c0.755-0.282,1.513-0.557,2.268-0.839
						C747.699,509.956,745.091,504.746,741.894,505.878z"/>
					<path fill="#59595B" d="M497.932,603.193c0.002-0.87-1.465-1.335-1.519-0.331c-1.99,37.036-5.002,74.677-4.252,111.77
						c0.042,2.083,3.518,3.3,3.711,0.808C498.752,678.319,497.823,640.412,497.932,603.193z"/>
					<path fill="#59595B" d="M238.698,720.926c-13.783-19.612-27.685-39.91-42.608-59.025c-0.795,1.59-2.384,2.56-4.14,2.873
						c13.719,19.962,28.886,39.303,43.417,58.324C237.024,725.266,240.368,723.302,238.698,720.926z"/>
					<path fill="#59595B" d="M493.535,719.168c-41.193,1.378-82.384,2.799-123.574,4.262c-41.086,1.461-82.439,1.962-123.434,5.131
						c-1.777,0.137-1.13,2.541,0.413,2.563c41.225,0.587,82.635-1.476,123.845-2.581c41.236-1.107,82.471-2.257,123.705-3.45
						C498.547,724.976,497.16,719.047,493.535,719.168z"/>
					<path fill="#59595B" d="M616.301,654.373c0.676-0.772,1.378-1.523,2.065-2.287c-0.989,0.595-1.976,1.198-2.966,1.79
						c-36.764,21.994-73.155,44.625-109.906,66.625c-0.838,0.502,0.182,1.765,0.977,1.304
						c33.627-19.496,67.548-38.509,101.235-57.92C610.39,660.559,613.224,657.364,616.301,654.373z"/>
					<path fill="#59595B" d="M746.681,540.855c-2.255-11.311-5.918-22.863-10.317-33.499c-0.316-0.767-1.582-0.7-1.487,0.243
						c1.091,10.944,3.304,22.132,6.463,32.706c-4.871,1.457-9.679,3.063-14.411,4.866c0.657,0.506,1.221,1.131,1.644,1.848
						c0.629-0.12,1.292-0.131,1.979,0.002c0.921,0.179,1.781,0.376,2.61,0.596c0.009-0.065,0.018-0.131,0.026-0.196
						c3.989-1.05,7.954-2.205,11.899-3.47c0.858-0.275,1.255-0.851,1.323-1.494C746.685,542.049,746.813,541.52,746.681,540.855z"/>
					<path fill="#59595B" d="M516.091,635.891c-1.234-5.214-3.666-10.157-5.737-15.089c-2.336-5.562-4.486-11.292-7.375-16.592
						c-0.521-0.956-2.601-1.126-2.229,0.363c1.282,5.153,3.283,10.103,5.082,15.093c2.017,5.597,3.742,11.617,6.645,16.813
						C513.331,638.012,516.668,638.328,516.091,635.891z"/>
					<path fill="#59595B" d="M702.587,558.972c0.741-0.937,1.508-1.844,2.29-2.734c-62.399,25.714-125.361,50.585-186.711,78.594
						c-0.969,0.442-0.267,1.901,0.672,1.562c59.902-21.716,118.872-46.428,177.946-70.474
						C698.646,563.501,700.596,561.167,702.587,558.972z"/>
					<path fill="#59595B" d="M486.197,604.01c-3.238,11.545-6.393,23.59-7.926,35.48c-0.252,1.949,3.289,3.544,3.842,1.334
						c2.943-11.759,4.442-24.222,5.662-36.268C487.854,603.768,486.455,603.093,486.197,604.01z"/>
					<path fill="#59595B" d="M477.307,637.087c-2.545-0.247-5.09-0.495-7.635-0.742c-1.319-0.128-2.091,0.57-2.362,1.444
						c-47.113,3.86-94.171,8.763-141.245,13.042c-50.084,4.553-100.646,7.564-150.482,14.362c-1.102,0.15-0.741,1.668,0.263,1.628
						c50.316-1.999,100.682-7.823,150.853-12.062c50.237-4.244,100.583-7.771,150.764-12.618
						C480.474,641.851,480.186,637.367,477.307,637.087z"/>
					<path fill="#59595B" d="M395.409,592.646c-38.72,9.483-78.287,20.102-115.993,33.048c-1.114,0.382-0.277,1.876,0.715,1.661
						c39.023-8.481,78.436-19.836,116.537-31.785C398.624,594.957,397.164,592.217,395.409,592.646z"/>
					<path fill="#59595B" d="M691.892,524.483c-23.384,3.496-46.608,8.858-69.819,13.366c-24.263,4.712-49.07,8.462-72.928,14.963
						c-1.458,0.397-0.6,2.637,0.725,2.478c23.451-2.817,46.739-8.285,69.912-12.794c24.341-4.735,49.059-8.61,73.164-14.415
						C695.068,527.569,693.815,524.196,691.892,524.483z"/>
					<path fill="#59595B" d="M242.809,731.35c-0.336-1.239-0.965-2.184-1.793-3.166c-0.465-0.552-1.768-0.508-1.539,0.471
						c0.283,1.209,0.642,2.304,1.416,3.282C241.451,732.642,243.133,732.546,242.809,731.35z"/>
					<path fill="#59595B" d="M491.711,614.466c0.31-3.964,0.463-7.913,0.303-11.808c-0.036-0.876-1.497-1.281-1.845-0.405
						c-0.896,2.251-1.655,4.583-2.358,6.944c-0.854,0.027-1.592,0.503-1.893,1.662c-2.38,9.195-3.313,19.039-4.456,28.495
						c-47.911,2.278-95.796,5.466-143.553,9.949c-23.984,2.252-47.957,4.723-71.878,7.576c-22.669,2.704-47.932,3.557-69.758,10.521
						c-1.468,0.469-0.51,2.337,0.696,2.376c23.625,0.767,48.524-4.603,72.019-7.158c23.96-2.606,47.938-5.013,71.945-7.144
						c48.011-4.261,96.084-7.599,144.232-9.842c1.929-0.09,2.719-1.373,2.668-2.769c0.111-0.263,0.202-0.548,0.248-0.881
						C489.494,632.977,491.298,623.606,491.711,614.466z"/>
					<path fill="#59595B" d="M514.027,636.739c-2.861-11.204-8.884-23.6-14.657-33.589c-0.787-1.362-3.787-1.701-3.278,0.533
						c2.513,11.039,6.561,24.1,11.987,34.025C509.468,640.252,515.04,640.708,514.027,636.739z"/>
					<path fill="#59595B" d="M739.823,550.643c2.163-2.374-0.734-7.152-4.066-5.74c-1.695,0.718-3.394,1.428-5.089,2.145
						C734.242,547.748,737.019,548.672,739.823,550.643z"/>
					<path fill="#59595B" d="M693.711,570.129c2.709-3.948,5.752-7.712,8.876-11.157c0.044-0.056,0.091-0.108,0.135-0.164
						c-26.816,11.236-53.666,22.395-80.448,33.714c-18.584,7.854-37.163,15.715-55.7,23.679
						c-17.691,7.601-37.141,14.089-53.366,24.567c-0.928,0.6,0.079,1.831,0.948,1.633c19.432-4.437,38.235-13.911,56.679-21.402
						c18.694-7.594,37.341-15.302,55.99-23.005C649.147,588.771,671.424,579.438,693.711,570.129z"/>
				</g>
			</g>
		</g>
	</g>
</g>
</svg>
